<svg width="2612" height="2963" viewBox="0 0 2612 2963" fill="none" xmlns="http://www.w3.org/2000/svg">
<ellipse cx="1328.5" cy="156" rx="145.5" ry="156" fill="#EE3C9C"/>
<ellipse cx="145.5" cy="989" rx="145.5" ry="156" fill="#EE3C9C"/>
<ellipse cx="145.5" cy="1662" rx="145.5" ry="156" fill="#EE3C9C"/>
<ellipse cx="2428.5" cy="1700" rx="145.5" ry="156" fill="#EE3C9C"/>
<ellipse cx="2466.5" cy="989" rx="145.5" ry="156" fill="#EE3C9C"/>
<path d="M1201.16 1328.99C1199.12 1632.47 1845.67 1882.84 1697.63 1881.85C1549.58 1880.85 1064.66 1631.56 1066.7 1328.08C1068.74 1024.6 1556.97 781.856 1705.02 782.852C1853.07 783.848 1203.2 1025.51 1201.16 1328.99Z" fill="#CB3DBD"/>
<path d="M1380.89 1315.28C1377.7 994.888 813.844 740.759 942.035 739.48C1070.23 738.202 1494.12 993.727 1497.32 1314.12C1500.52 1634.51 1081.8 1898.44 953.606 1899.71C825.416 1900.99 1384.09 1635.67 1380.89 1315.28Z" fill="#CB3DBD"/>
<path d="M1368.27 1069.54C1688.19 1051.81 1916.47 477.006 1923.57 605.007C1930.66 733.008 1694.63 1168.06 1374.72 1185.79C1054.8 1203.52 772.146 797.208 765.053 669.207C757.96 541.206 1048.36 1087.27 1368.27 1069.54Z" fill="#CB3DBD"/>
<path d="M1326.33 1610.93C1016.34 1614.17 770.027 2094.34 768.887 1985.27C767.747 1876.2 1015.3 1515.11 1325.29 1511.87C1635.29 1508.63 1890.33 1864.47 1891.47 1973.53C1892.61 2082.6 1636.32 1607.69 1326.33 1610.93Z" fill="#CB3DBD"/>
<path d="M1380.89 1315.28C1377.7 994.888 813.844 740.759 942.035 739.48C1070.23 738.202 1494.12 993.727 1497.32 1314.12C1500.52 1634.51 1081.8 1898.44 953.606 1899.71C825.416 1900.99 1384.09 1635.67 1380.89 1315.28Z" fill="#CB3DBD"/>
<mask id="path-11-outside-1_203_38" maskUnits="userSpaceOnUse" x="293" y="2160" width="2158" height="301" fill="black">
<rect fill="white" x="293" y="2160" width="2158" height="301"/>
<path d="M306.141 2173.82H336.397L396.908 2275.66H399.465L459.976 2173.82H490.232L411.397 2302.09V2392H384.976V2302.09L306.141 2173.82ZM564.327 2395.41C549.554 2395.41 536.592 2391.89 525.442 2384.86C514.362 2377.83 505.697 2367.99 499.447 2355.35C493.268 2342.71 490.179 2327.94 490.179 2311.03C490.179 2293.99 493.268 2279.11 499.447 2266.4C505.697 2253.68 514.362 2243.81 525.442 2236.78C536.592 2229.75 549.554 2226.23 564.327 2226.23C579.099 2226.23 592.025 2229.75 603.105 2236.78C614.256 2243.81 622.92 2253.68 629.099 2266.4C635.349 2279.11 638.474 2293.99 638.474 2311.03C638.474 2327.94 635.349 2342.71 629.099 2355.35C622.92 2367.99 614.256 2377.83 603.105 2384.86C592.025 2391.89 579.099 2395.41 564.327 2395.41ZM564.327 2372.82C575.548 2372.82 584.781 2369.95 592.025 2364.19C599.27 2358.44 604.632 2350.88 608.112 2341.5C611.592 2332.13 613.332 2321.97 613.332 2311.03C613.332 2300.1 611.592 2289.9 608.112 2280.46C604.632 2271.01 599.27 2263.38 592.025 2257.55C584.781 2251.73 575.548 2248.82 564.327 2248.82C553.105 2248.82 543.872 2251.73 536.628 2257.55C529.383 2263.38 524.021 2271.01 520.541 2280.46C517.061 2289.9 515.321 2300.1 515.321 2311.03C515.321 2321.97 517.061 2332.13 520.541 2341.5C524.021 2350.88 529.383 2358.44 536.628 2364.19C543.872 2369.95 553.105 2372.82 564.327 2372.82ZM779.978 2325.1V2228.36H805.12V2392H779.978V2364.3H778.274C774.438 2372.61 768.472 2379.68 760.376 2385.5C752.279 2391.25 742.052 2394.13 729.694 2394.13C719.467 2394.13 710.376 2391.89 702.421 2387.42C694.467 2382.87 688.217 2376.06 683.671 2366.96C679.126 2357.8 676.853 2346.26 676.853 2332.34V2228.36H701.995V2330.64C701.995 2342.57 705.333 2352.09 712.009 2359.19C718.757 2366.29 727.35 2369.84 737.791 2369.84C744.041 2369.84 750.397 2368.24 756.86 2365.05C763.394 2361.85 768.863 2356.95 773.267 2350.35C777.741 2343.74 779.978 2335.32 779.978 2325.1ZM851.17 2392V2228.36H875.459V2253.08H877.164C880.147 2244.98 885.545 2238.41 893.357 2233.37C901.17 2228.33 909.976 2225.81 919.778 2225.81C921.624 2225.81 923.932 2225.84 926.702 2225.91C929.472 2225.98 931.567 2226.09 932.988 2226.23V2251.8C932.135 2251.59 930.182 2251.27 927.128 2250.84C924.145 2250.35 920.985 2250.1 917.647 2250.1C909.692 2250.1 902.59 2251.77 896.34 2255.1C890.161 2258.37 885.26 2262.92 881.638 2268.74C878.087 2274.49 876.312 2281.06 876.312 2288.45V2392H851.17ZM1141.77 2242H1115.35C1113.78 2234.4 1111.05 2227.72 1107.14 2221.97C1103.31 2216.22 1098.62 2211.39 1093.08 2207.48C1087.61 2203.51 1081.54 2200.52 1074.86 2198.53C1068.19 2196.55 1061.23 2195.55 1053.98 2195.55C1040.77 2195.55 1028.81 2198.89 1018.08 2205.57C1007.43 2212.24 998.941 2222.08 992.62 2235.08C986.37 2248.07 983.245 2264.02 983.245 2282.91C983.245 2301.8 986.37 2317.75 992.62 2330.74C998.941 2343.74 1007.43 2353.58 1018.08 2360.25C1028.81 2366.93 1040.77 2370.27 1053.98 2370.27C1061.23 2370.27 1068.19 2369.27 1074.86 2367.28C1081.54 2365.3 1087.61 2362.35 1093.08 2358.44C1098.62 2354.46 1103.31 2349.6 1107.14 2343.85C1111.05 2338.02 1113.78 2331.35 1115.35 2323.82H1141.77C1139.78 2334.97 1136.16 2344.95 1130.9 2353.75C1125.65 2362.56 1119.11 2370.05 1111.3 2376.23C1103.49 2382.34 1094.72 2386.99 1084.99 2390.19C1075.33 2393.38 1064.99 2394.98 1053.98 2394.98C1035.38 2394.98 1018.83 2390.44 1004.34 2381.35C989.85 2372.26 978.451 2359.33 970.142 2342.57C961.832 2325.81 957.677 2305.92 957.677 2282.91C957.677 2259.9 961.832 2240.01 970.142 2223.25C978.451 2206.49 989.85 2193.56 1004.34 2184.47C1018.83 2175.38 1035.38 2170.84 1053.98 2170.84C1064.99 2170.84 1075.33 2172.43 1084.99 2175.63C1094.72 2178.83 1103.49 2183.51 1111.3 2189.69C1119.11 2195.8 1125.65 2203.26 1130.9 2212.06C1136.16 2220.8 1139.78 2230.78 1141.77 2242ZM1181.05 2392V2228.36H1206.19V2392H1181.05ZM1193.84 2201.09C1188.94 2201.09 1184.71 2199.42 1181.16 2196.08C1177.68 2192.75 1175.94 2188.73 1175.94 2184.05C1175.94 2179.36 1177.68 2175.35 1181.16 2172.01C1184.71 2168.67 1188.94 2167 1193.84 2167C1198.74 2167 1202.93 2168.67 1206.41 2172.01C1209.96 2175.35 1211.73 2179.36 1211.73 2184.05C1211.73 2188.73 1209.96 2192.75 1206.41 2196.08C1202.93 2199.42 1198.74 2201.09 1193.84 2201.09ZM1323.41 2228.36V2249.67H1238.61V2228.36H1323.41ZM1263.32 2189.16H1288.47V2345.12C1288.47 2352.23 1289.5 2357.55 1291.55 2361.11C1293.69 2364.59 1296.38 2366.93 1299.65 2368.14C1302.99 2369.27 1306.51 2369.84 1310.2 2369.84C1312.97 2369.84 1315.24 2369.7 1317.02 2369.41C1318.79 2369.06 1320.21 2368.78 1321.28 2368.56L1326.39 2391.15C1324.69 2391.79 1322.31 2392.43 1319.25 2393.07C1316.2 2393.78 1312.33 2394.13 1307.64 2394.13C1300.54 2394.13 1293.58 2392.6 1286.76 2389.55C1280.01 2386.5 1274.4 2381.84 1269.93 2375.59C1265.53 2369.34 1263.32 2361.46 1263.32 2351.94V2189.16ZM1377.42 2453.36C1373.16 2453.36 1369.36 2453.01 1366.02 2452.3C1362.68 2451.66 1360.38 2451.02 1359.1 2450.38L1365.49 2428.22C1371.6 2429.78 1377 2430.35 1381.68 2429.93C1386.37 2429.5 1390.53 2427.4 1394.15 2423.64C1397.84 2419.95 1401.21 2413.95 1404.27 2405.64L1408.96 2392.85L1348.44 2228.36H1375.72L1420.89 2358.76H1422.59L1467.76 2228.36H1495.03L1425.57 2415.86C1422.45 2424.32 1418.58 2431.31 1413.96 2436.85C1409.35 2442.46 1403.98 2446.62 1397.88 2449.32C1391.84 2452.01 1385.02 2453.36 1377.42 2453.36ZM1531.63 2392V2173.82H1663.31V2197.26H1558.05V2270.98H1656.49V2294.41H1558.05V2368.56H1665.01V2392H1531.63ZM1841.32 2228.36L1780.81 2392H1755.24L1694.73 2228.36H1722.01L1767.18 2358.76H1768.88L1814.05 2228.36H1841.32ZM1937.26 2395.41C1921.49 2395.41 1907.89 2391.93 1896.46 2384.97C1885.09 2377.94 1876.32 2368.14 1870.14 2355.57C1864.03 2342.92 1860.98 2328.22 1860.98 2311.46C1860.98 2294.7 1864.03 2279.93 1870.14 2267.14C1876.32 2254.29 1884.91 2244.27 1895.92 2237.1C1907 2229.86 1919.93 2226.23 1934.7 2226.23C1943.22 2226.23 1951.64 2227.65 1959.95 2230.49C1968.26 2233.34 1975.82 2237.95 1982.64 2244.34C1989.46 2250.66 1994.89 2259.05 1998.94 2269.49C2002.99 2279.93 2005.01 2292.78 2005.01 2308.05V2318.7H1878.88V2296.97H1979.45C1979.45 2287.74 1977.6 2279.5 1973.91 2272.26C1970.28 2265.01 1965.1 2259.29 1958.35 2255.1C1951.68 2250.91 1943.79 2248.82 1934.7 2248.82C1924.69 2248.82 1916.02 2251.3 1908.71 2256.28C1901.46 2261.18 1895.89 2267.57 1891.98 2275.45C1888.07 2283.34 1886.12 2291.79 1886.12 2300.81V2315.3C1886.12 2327.65 1888.25 2338.13 1892.51 2346.72C1896.85 2355.25 1902.85 2361.74 1910.52 2366.22C1918.19 2370.62 1927.1 2372.82 1937.26 2372.82C1943.86 2372.82 1949.83 2371.9 1955.16 2370.05C1960.55 2368.14 1965.21 2365.3 1969.11 2361.53C1973.02 2357.7 1976.04 2352.94 1978.17 2347.26L2002.46 2354.07C1999.9 2362.31 1995.6 2369.56 1989.57 2375.81C1983.53 2381.99 1976.07 2386.82 1967.19 2390.3C1958.32 2393.7 1948.34 2395.41 1937.26 2395.41ZM2068.4 2293.56V2392H2043.26V2228.36H2067.55V2253.93H2069.68C2073.52 2245.62 2079.34 2238.95 2087.15 2233.9C2094.96 2228.79 2105.05 2226.23 2117.41 2226.23C2128.49 2226.23 2138.18 2228.51 2146.49 2233.05C2154.8 2237.53 2161.26 2244.34 2165.88 2253.51C2170.5 2262.6 2172.8 2274.1 2172.8 2288.02V2392H2147.66V2289.73C2147.66 2276.87 2144.32 2266.86 2137.65 2259.68C2130.97 2252.44 2121.81 2248.82 2110.16 2248.82C2102.14 2248.82 2094.96 2250.56 2088.64 2254.04C2082.39 2257.52 2077.46 2262.6 2073.83 2269.27C2070.21 2275.95 2068.4 2284.05 2068.4 2293.56ZM2289.91 2228.36V2249.67H2205.11V2228.36H2289.91ZM2229.83 2189.16H2254.97V2345.12C2254.97 2352.23 2256 2357.55 2258.06 2361.11C2260.19 2364.59 2262.89 2366.93 2266.16 2368.14C2269.49 2369.27 2273.01 2369.84 2276.7 2369.84C2279.47 2369.84 2281.74 2369.7 2283.52 2369.41C2285.3 2369.06 2286.72 2368.78 2287.78 2368.56L2292.9 2391.15C2291.19 2391.79 2288.81 2392.43 2285.76 2393.07C2282.7 2393.78 2278.83 2394.13 2274.15 2394.13C2267.04 2394.13 2260.08 2392.6 2253.26 2389.55C2246.52 2386.5 2240.91 2381.84 2236.43 2375.59C2232.03 2369.34 2229.83 2361.46 2229.83 2351.94V2189.16ZM2440.71 2265.01L2418.13 2271.4C2416.71 2267.64 2414.61 2263.98 2411.84 2260.43C2409.14 2256.81 2405.45 2253.83 2400.76 2251.48C2396.07 2249.14 2390.07 2247.97 2382.76 2247.97C2372.74 2247.97 2364.4 2250.27 2357.72 2254.89C2351.12 2259.44 2347.81 2265.22 2347.81 2272.26C2347.81 2278.51 2350.09 2283.44 2354.63 2287.06C2359.18 2290.69 2366.28 2293.7 2375.94 2296.12L2400.23 2302.09C2414.86 2305.64 2425.76 2311.07 2432.93 2318.38C2440.11 2325.63 2443.69 2334.97 2443.69 2346.4C2443.69 2355.78 2441 2364.16 2435.6 2371.55C2430.27 2378.93 2422.81 2384.76 2413.23 2389.02C2403.64 2393.28 2392.49 2395.41 2379.77 2395.41C2363.08 2395.41 2349.27 2391.79 2338.33 2384.54C2327.39 2377.3 2320.47 2366.72 2317.56 2352.8L2341.42 2346.83C2343.69 2355.64 2347.99 2362.24 2354.31 2366.64C2360.7 2371.05 2369.05 2373.25 2379.35 2373.25C2391.07 2373.25 2400.37 2370.76 2407.26 2365.79C2414.22 2360.75 2417.7 2354.71 2417.7 2347.68C2417.7 2342 2415.71 2337.24 2411.73 2333.41C2407.76 2329.5 2401.65 2326.59 2393.41 2324.67L2366.14 2318.28C2351.15 2314.73 2340.14 2309.22 2333.11 2301.77C2326.15 2294.24 2322.67 2284.83 2322.67 2273.53C2322.67 2264.3 2325.26 2256.13 2330.45 2249.03C2335.7 2241.93 2342.84 2236.35 2351.86 2232.31C2360.95 2228.26 2371.25 2226.23 2382.76 2226.23C2398.95 2226.23 2411.66 2229.78 2420.9 2236.89C2430.2 2243.99 2436.81 2253.36 2440.71 2265.01Z"/>
</mask>
<path d="M306.141 2173.82H336.397L396.908 2275.66H399.465L459.976 2173.82H490.232L411.397 2302.09V2392H384.976V2302.09L306.141 2173.82ZM564.327 2395.41C549.554 2395.41 536.592 2391.89 525.442 2384.86C514.362 2377.83 505.697 2367.99 499.447 2355.35C493.268 2342.71 490.179 2327.94 490.179 2311.03C490.179 2293.99 493.268 2279.11 499.447 2266.4C505.697 2253.68 514.362 2243.81 525.442 2236.78C536.592 2229.75 549.554 2226.23 564.327 2226.23C579.099 2226.23 592.025 2229.75 603.105 2236.78C614.256 2243.81 622.92 2253.68 629.099 2266.4C635.349 2279.11 638.474 2293.99 638.474 2311.03C638.474 2327.94 635.349 2342.71 629.099 2355.35C622.92 2367.99 614.256 2377.83 603.105 2384.86C592.025 2391.89 579.099 2395.41 564.327 2395.41ZM564.327 2372.82C575.548 2372.82 584.781 2369.95 592.025 2364.19C599.27 2358.44 604.632 2350.88 608.112 2341.5C611.592 2332.13 613.332 2321.97 613.332 2311.03C613.332 2300.1 611.592 2289.9 608.112 2280.46C604.632 2271.01 599.27 2263.38 592.025 2257.55C584.781 2251.73 575.548 2248.82 564.327 2248.82C553.105 2248.82 543.872 2251.73 536.628 2257.55C529.383 2263.38 524.021 2271.01 520.541 2280.46C517.061 2289.9 515.321 2300.1 515.321 2311.03C515.321 2321.97 517.061 2332.13 520.541 2341.5C524.021 2350.88 529.383 2358.44 536.628 2364.19C543.872 2369.95 553.105 2372.82 564.327 2372.82ZM779.978 2325.1V2228.36H805.12V2392H779.978V2364.3H778.274C774.438 2372.61 768.472 2379.68 760.376 2385.5C752.279 2391.25 742.052 2394.13 729.694 2394.13C719.467 2394.13 710.376 2391.89 702.421 2387.42C694.467 2382.87 688.217 2376.06 683.671 2366.96C679.126 2357.8 676.853 2346.26 676.853 2332.34V2228.36H701.995V2330.64C701.995 2342.57 705.333 2352.09 712.009 2359.19C718.757 2366.29 727.35 2369.84 737.791 2369.84C744.041 2369.84 750.397 2368.24 756.86 2365.05C763.394 2361.85 768.863 2356.95 773.267 2350.35C777.741 2343.74 779.978 2335.32 779.978 2325.1ZM851.17 2392V2228.36H875.459V2253.08H877.164C880.147 2244.98 885.545 2238.41 893.357 2233.37C901.17 2228.33 909.976 2225.81 919.778 2225.81C921.624 2225.81 923.932 2225.84 926.702 2225.91C929.472 2225.98 931.567 2226.09 932.988 2226.23V2251.8C932.135 2251.59 930.182 2251.27 927.128 2250.84C924.145 2250.35 920.985 2250.1 917.647 2250.1C909.692 2250.1 902.59 2251.77 896.34 2255.1C890.161 2258.37 885.26 2262.92 881.638 2268.74C878.087 2274.49 876.312 2281.06 876.312 2288.45V2392H851.17ZM1141.77 2242H1115.35C1113.78 2234.4 1111.05 2227.72 1107.14 2221.97C1103.31 2216.22 1098.62 2211.39 1093.08 2207.48C1087.61 2203.51 1081.54 2200.52 1074.86 2198.53C1068.19 2196.55 1061.23 2195.55 1053.98 2195.55C1040.77 2195.55 1028.81 2198.89 1018.08 2205.57C1007.43 2212.24 998.941 2222.08 992.62 2235.08C986.37 2248.07 983.245 2264.02 983.245 2282.91C983.245 2301.8 986.37 2317.75 992.62 2330.74C998.941 2343.74 1007.43 2353.58 1018.08 2360.25C1028.81 2366.93 1040.77 2370.27 1053.98 2370.27C1061.23 2370.27 1068.19 2369.27 1074.86 2367.28C1081.54 2365.3 1087.61 2362.35 1093.08 2358.44C1098.62 2354.46 1103.31 2349.6 1107.14 2343.85C1111.05 2338.02 1113.78 2331.35 1115.35 2323.82H1141.77C1139.78 2334.97 1136.16 2344.95 1130.9 2353.75C1125.65 2362.56 1119.11 2370.05 1111.3 2376.23C1103.49 2382.34 1094.72 2386.99 1084.99 2390.19C1075.33 2393.38 1064.99 2394.98 1053.98 2394.98C1035.38 2394.98 1018.83 2390.44 1004.34 2381.35C989.85 2372.26 978.451 2359.33 970.142 2342.57C961.832 2325.81 957.677 2305.92 957.677 2282.91C957.677 2259.9 961.832 2240.01 970.142 2223.25C978.451 2206.49 989.85 2193.56 1004.34 2184.47C1018.83 2175.38 1035.38 2170.84 1053.98 2170.84C1064.99 2170.84 1075.33 2172.43 1084.99 2175.63C1094.72 2178.83 1103.49 2183.51 1111.3 2189.69C1119.11 2195.8 1125.65 2203.26 1130.9 2212.06C1136.16 2220.8 1139.78 2230.78 1141.77 2242ZM1181.05 2392V2228.36H1206.19V2392H1181.05ZM1193.84 2201.09C1188.94 2201.09 1184.71 2199.42 1181.16 2196.08C1177.68 2192.75 1175.94 2188.73 1175.94 2184.05C1175.94 2179.36 1177.68 2175.35 1181.16 2172.01C1184.71 2168.67 1188.94 2167 1193.84 2167C1198.74 2167 1202.93 2168.67 1206.41 2172.01C1209.96 2175.35 1211.73 2179.36 1211.73 2184.05C1211.73 2188.73 1209.96 2192.75 1206.41 2196.08C1202.93 2199.42 1198.74 2201.09 1193.84 2201.09ZM1323.41 2228.36V2249.67H1238.61V2228.36H1323.41ZM1263.32 2189.16H1288.47V2345.12C1288.47 2352.23 1289.5 2357.55 1291.55 2361.11C1293.69 2364.59 1296.38 2366.93 1299.65 2368.14C1302.99 2369.27 1306.51 2369.84 1310.2 2369.84C1312.97 2369.84 1315.24 2369.7 1317.02 2369.41C1318.79 2369.06 1320.21 2368.78 1321.28 2368.56L1326.39 2391.15C1324.69 2391.79 1322.31 2392.43 1319.25 2393.07C1316.2 2393.78 1312.33 2394.13 1307.64 2394.13C1300.54 2394.13 1293.58 2392.6 1286.76 2389.55C1280.01 2386.5 1274.4 2381.84 1269.93 2375.59C1265.53 2369.34 1263.32 2361.46 1263.32 2351.94V2189.16ZM1377.42 2453.36C1373.16 2453.36 1369.36 2453.01 1366.02 2452.3C1362.68 2451.66 1360.38 2451.02 1359.1 2450.38L1365.49 2428.22C1371.6 2429.78 1377 2430.35 1381.68 2429.93C1386.37 2429.5 1390.53 2427.4 1394.15 2423.64C1397.84 2419.95 1401.21 2413.95 1404.27 2405.64L1408.96 2392.85L1348.44 2228.36H1375.72L1420.89 2358.76H1422.59L1467.76 2228.36H1495.03L1425.57 2415.86C1422.45 2424.32 1418.58 2431.31 1413.96 2436.85C1409.35 2442.46 1403.98 2446.62 1397.88 2449.32C1391.84 2452.01 1385.02 2453.36 1377.42 2453.36ZM1531.63 2392V2173.82H1663.31V2197.26H1558.05V2270.98H1656.49V2294.41H1558.05V2368.56H1665.01V2392H1531.63ZM1841.32 2228.36L1780.81 2392H1755.24L1694.73 2228.36H1722.01L1767.18 2358.76H1768.88L1814.05 2228.36H1841.32ZM1937.26 2395.41C1921.49 2395.41 1907.89 2391.93 1896.46 2384.97C1885.09 2377.94 1876.32 2368.14 1870.14 2355.57C1864.03 2342.92 1860.98 2328.22 1860.98 2311.46C1860.98 2294.7 1864.03 2279.93 1870.14 2267.14C1876.32 2254.29 1884.91 2244.27 1895.92 2237.1C1907 2229.86 1919.93 2226.23 1934.7 2226.23C1943.22 2226.23 1951.64 2227.65 1959.95 2230.49C1968.26 2233.34 1975.82 2237.95 1982.64 2244.34C1989.46 2250.66 1994.89 2259.05 1998.94 2269.49C2002.99 2279.93 2005.01 2292.78 2005.01 2308.05V2318.7H1878.88V2296.97H1979.45C1979.45 2287.74 1977.6 2279.5 1973.91 2272.26C1970.28 2265.01 1965.1 2259.29 1958.35 2255.1C1951.68 2250.91 1943.79 2248.82 1934.7 2248.82C1924.69 2248.82 1916.02 2251.3 1908.71 2256.28C1901.46 2261.18 1895.89 2267.57 1891.98 2275.45C1888.07 2283.34 1886.12 2291.79 1886.12 2300.81V2315.3C1886.12 2327.65 1888.25 2338.13 1892.51 2346.72C1896.85 2355.25 1902.85 2361.74 1910.52 2366.22C1918.19 2370.62 1927.1 2372.82 1937.26 2372.82C1943.86 2372.82 1949.83 2371.9 1955.16 2370.05C1960.55 2368.14 1965.21 2365.3 1969.11 2361.53C1973.02 2357.7 1976.04 2352.94 1978.17 2347.26L2002.46 2354.07C1999.9 2362.31 1995.6 2369.56 1989.57 2375.81C1983.53 2381.99 1976.07 2386.82 1967.19 2390.3C1958.32 2393.7 1948.34 2395.41 1937.26 2395.41ZM2068.4 2293.56V2392H2043.26V2228.36H2067.55V2253.93H2069.68C2073.52 2245.62 2079.34 2238.95 2087.15 2233.9C2094.96 2228.79 2105.05 2226.23 2117.41 2226.23C2128.49 2226.23 2138.18 2228.51 2146.49 2233.05C2154.8 2237.53 2161.26 2244.34 2165.88 2253.51C2170.5 2262.6 2172.8 2274.1 2172.8 2288.02V2392H2147.66V2289.73C2147.66 2276.87 2144.32 2266.86 2137.65 2259.68C2130.97 2252.44 2121.81 2248.82 2110.16 2248.82C2102.14 2248.82 2094.96 2250.56 2088.64 2254.04C2082.39 2257.52 2077.46 2262.6 2073.83 2269.27C2070.21 2275.95 2068.4 2284.05 2068.4 2293.56ZM2289.91 2228.36V2249.67H2205.11V2228.36H2289.91ZM2229.83 2189.16H2254.97V2345.12C2254.97 2352.23 2256 2357.55 2258.06 2361.11C2260.19 2364.59 2262.89 2366.93 2266.16 2368.14C2269.49 2369.27 2273.01 2369.84 2276.7 2369.84C2279.47 2369.84 2281.74 2369.7 2283.52 2369.41C2285.3 2369.06 2286.72 2368.78 2287.78 2368.56L2292.9 2391.15C2291.19 2391.79 2288.81 2392.43 2285.76 2393.07C2282.7 2393.78 2278.83 2394.13 2274.15 2394.13C2267.04 2394.13 2260.08 2392.6 2253.26 2389.55C2246.52 2386.5 2240.91 2381.84 2236.43 2375.59C2232.03 2369.34 2229.83 2361.46 2229.83 2351.94V2189.16ZM2440.71 2265.01L2418.13 2271.4C2416.71 2267.64 2414.61 2263.98 2411.84 2260.43C2409.14 2256.81 2405.45 2253.83 2400.76 2251.48C2396.07 2249.14 2390.07 2247.97 2382.76 2247.97C2372.74 2247.97 2364.4 2250.27 2357.72 2254.89C2351.12 2259.44 2347.81 2265.22 2347.81 2272.26C2347.81 2278.51 2350.09 2283.44 2354.63 2287.06C2359.18 2290.69 2366.28 2293.7 2375.94 2296.12L2400.23 2302.09C2414.86 2305.64 2425.76 2311.07 2432.93 2318.38C2440.11 2325.63 2443.69 2334.97 2443.69 2346.4C2443.69 2355.78 2441 2364.16 2435.6 2371.55C2430.27 2378.93 2422.81 2384.76 2413.23 2389.02C2403.64 2393.28 2392.49 2395.41 2379.77 2395.41C2363.08 2395.41 2349.27 2391.79 2338.33 2384.54C2327.39 2377.3 2320.47 2366.72 2317.56 2352.8L2341.42 2346.83C2343.69 2355.64 2347.99 2362.24 2354.31 2366.64C2360.7 2371.05 2369.05 2373.25 2379.35 2373.25C2391.07 2373.25 2400.37 2370.76 2407.26 2365.79C2414.22 2360.75 2417.7 2354.71 2417.7 2347.68C2417.7 2342 2415.71 2337.24 2411.73 2333.41C2407.76 2329.5 2401.65 2326.59 2393.41 2324.67L2366.14 2318.28C2351.15 2314.73 2340.14 2309.22 2333.11 2301.77C2326.15 2294.24 2322.67 2284.83 2322.67 2273.53C2322.67 2264.3 2325.26 2256.13 2330.45 2249.03C2335.7 2241.93 2342.84 2236.35 2351.86 2232.31C2360.95 2228.26 2371.25 2226.23 2382.76 2226.23C2398.95 2226.23 2411.66 2229.78 2420.9 2236.89C2430.2 2243.99 2436.81 2253.36 2440.71 2265.01Z" fill="#CB3DBD"/>
<path d="M306.141 2173.82V2166.82H293.622L300.178 2177.48L306.141 2173.82ZM336.397 2173.82L342.415 2170.24L340.38 2166.82H336.397V2173.82ZM396.908 2275.66L390.89 2279.24L392.925 2282.66H396.908V2275.66ZM399.465 2275.66V2282.66H403.448L405.483 2279.24L399.465 2275.66ZM459.976 2173.82V2166.82H455.993L453.958 2170.24L459.976 2173.82ZM490.232 2173.82L496.196 2177.48L502.751 2166.82H490.232V2173.82ZM411.397 2302.09L405.433 2298.42L404.397 2300.11V2302.09H411.397ZM411.397 2392V2399H418.397V2392H411.397ZM384.976 2392H377.976V2399H384.976V2392ZM384.976 2302.09H391.976V2300.11L390.94 2298.42L384.976 2302.09ZM306.141 2180.82H336.397V2166.82H306.141V2180.82ZM330.379 2177.39L390.89 2279.24L402.926 2272.09L342.415 2170.24L330.379 2177.39ZM396.908 2282.66H399.465V2268.66H396.908V2282.66ZM405.483 2279.24L465.994 2177.39L453.958 2170.24L393.447 2272.09L405.483 2279.24ZM459.976 2180.82H490.232V2166.82H459.976V2180.82ZM484.268 2170.15L405.433 2298.42L417.36 2305.75L496.196 2177.48L484.268 2170.15ZM404.397 2302.09V2392H418.397V2302.09H404.397ZM411.397 2385H384.976V2399H411.397V2385ZM391.976 2392V2302.09H377.976V2392H391.976ZM390.94 2298.42L312.105 2170.15L300.178 2177.48L379.013 2305.75L390.94 2298.42ZM525.442 2384.86L521.691 2390.77L521.699 2390.78L521.708 2390.78L525.442 2384.86ZM499.447 2355.35L493.158 2358.43L493.165 2358.44L493.172 2358.45L499.447 2355.35ZM499.447 2266.4L493.165 2263.31L493.158 2263.32L493.151 2263.34L499.447 2266.4ZM525.442 2236.78L521.708 2230.86L521.699 2230.86L521.691 2230.87L525.442 2236.78ZM603.105 2236.78L599.354 2242.69L599.363 2242.7L599.371 2242.7L603.105 2236.78ZM629.099 2266.4L622.803 2269.46L622.81 2269.47L622.817 2269.48L629.099 2266.4ZM629.099 2355.35L622.824 2352.25L622.817 2352.26L622.81 2352.28L629.099 2355.35ZM603.105 2384.86L599.371 2378.94L599.363 2378.95L599.354 2378.95L603.105 2384.86ZM592.025 2364.19L587.672 2358.71L587.672 2358.71L592.025 2364.19ZM608.112 2341.5L614.674 2343.94L614.674 2343.94L608.112 2341.5ZM608.112 2280.46L614.68 2278.04L614.68 2278.04L608.112 2280.46ZM592.025 2257.55L596.411 2252.1L596.411 2252.1L592.025 2257.55ZM536.628 2257.55L532.242 2252.1L532.242 2252.1L536.628 2257.55ZM520.541 2280.46L513.973 2278.04L513.973 2278.04L520.541 2280.46ZM520.541 2341.5L513.979 2343.94L513.979 2343.94L520.541 2341.5ZM536.628 2364.19L540.981 2358.71L540.981 2358.71L536.628 2364.19ZM564.327 2388.41C550.711 2388.41 539.077 2385.18 529.175 2378.94L521.708 2390.78C534.107 2398.6 548.397 2402.41 564.327 2402.41V2388.41ZM529.192 2378.95C519.277 2372.66 511.448 2363.83 505.722 2352.25L493.172 2358.45C499.946 2372.16 509.447 2383 521.691 2390.77L529.192 2378.95ZM505.736 2352.28C500.11 2340.77 497.179 2327.08 497.179 2311.03H483.179C483.179 2328.79 486.427 2344.65 493.158 2358.43L505.736 2352.28ZM497.179 2311.03C497.179 2294.83 500.113 2281.04 505.743 2269.46L493.151 2263.34C486.423 2277.18 483.179 2293.14 483.179 2311.03H497.179ZM505.729 2269.48C511.458 2257.83 519.286 2248.98 529.192 2242.69L521.691 2230.87C509.438 2238.65 499.937 2249.53 493.165 2263.31L505.729 2269.48ZM529.175 2242.7C539.077 2236.46 550.711 2233.23 564.327 2233.23V2219.23C548.397 2219.23 534.107 2223.04 521.708 2230.86L529.175 2242.7ZM564.327 2233.23C577.943 2233.23 589.533 2236.46 599.354 2242.69L606.856 2230.87C594.518 2223.04 580.256 2219.23 564.327 2219.23V2233.23ZM599.371 2242.7C609.337 2248.99 617.152 2257.83 622.803 2269.46L635.395 2263.34C628.688 2249.54 619.174 2238.64 606.839 2230.86L599.371 2242.7ZM622.817 2269.48C628.508 2281.06 631.474 2294.84 631.474 2311.03H645.474C645.474 2293.13 642.19 2277.16 635.381 2263.31L622.817 2269.48ZM631.474 2311.03C631.474 2327.07 628.512 2340.75 622.824 2352.25L635.374 2358.45C642.187 2344.67 645.474 2328.8 645.474 2311.03H631.474ZM622.81 2352.28C617.162 2363.83 609.347 2372.65 599.371 2378.94L606.839 2390.78C619.164 2383.01 628.679 2372.15 635.388 2358.43L622.81 2352.28ZM599.354 2378.95C589.533 2385.18 577.943 2388.41 564.327 2388.41V2402.41C580.256 2402.41 594.518 2398.6 606.856 2390.77L599.354 2378.95ZM564.327 2379.82C576.781 2379.82 587.649 2376.61 596.379 2369.68L587.672 2358.71C581.913 2363.29 574.315 2365.82 564.327 2365.82V2379.82ZM596.379 2369.68C604.704 2363.06 610.787 2354.41 614.674 2343.94L601.55 2339.07C598.477 2347.34 593.835 2353.82 587.672 2358.71L596.379 2369.68ZM614.674 2343.94C618.47 2333.71 620.332 2322.73 620.332 2311.03H606.332C606.332 2321.22 604.714 2330.54 601.55 2339.07L614.674 2343.94ZM620.332 2311.03C620.332 2299.34 618.47 2288.32 614.68 2278.04L601.544 2282.88C604.715 2291.49 606.332 2300.85 606.332 2311.03H620.332ZM614.68 2278.04C610.799 2267.5 604.727 2258.78 596.411 2252.1L587.639 2263.01C593.813 2267.97 598.465 2274.52 601.544 2282.88L614.68 2278.04ZM596.411 2252.1C587.681 2245.08 576.801 2241.82 564.327 2241.82V2255.82C574.295 2255.82 581.881 2258.38 587.639 2263.01L596.411 2252.1ZM564.327 2241.82C551.852 2241.82 540.972 2245.08 532.242 2252.1L541.014 2263.01C546.772 2258.38 554.358 2255.82 564.327 2255.82V2241.82ZM532.242 2252.1C523.926 2258.78 517.854 2267.5 513.973 2278.04L527.109 2282.88C530.188 2274.52 534.84 2267.97 541.014 2263.01L532.242 2252.1ZM513.973 2278.04C510.183 2288.32 508.321 2299.34 508.321 2311.03H522.321C522.321 2300.85 523.939 2291.49 527.109 2282.88L513.973 2278.04ZM508.321 2311.03C508.321 2322.73 510.183 2333.71 513.979 2343.94L527.103 2339.07C523.939 2330.54 522.321 2321.22 522.321 2311.03H508.321ZM513.979 2343.94C517.866 2354.41 523.949 2363.06 532.274 2369.68L540.981 2358.71C534.818 2353.82 530.176 2347.34 527.103 2339.07L513.979 2343.94ZM532.274 2369.68C541.004 2376.61 551.872 2379.82 564.327 2379.82V2365.82C554.338 2365.82 546.74 2363.29 540.981 2358.71L532.274 2369.68ZM779.978 2228.36V2221.36H772.978V2228.36H779.978ZM805.12 2228.36H812.12V2221.36H805.12V2228.36ZM805.12 2392V2399H812.12V2392H805.12ZM779.978 2392H772.978V2399H779.978V2392ZM779.978 2364.3H786.978V2357.3H779.978V2364.3ZM778.274 2364.3V2357.3H773.795L771.918 2361.37L778.274 2364.3ZM760.376 2385.5L764.43 2391.21L764.447 2391.2L764.463 2391.18L760.376 2385.5ZM702.421 2387.42L698.948 2393.5L698.969 2393.51L698.99 2393.52L702.421 2387.42ZM683.671 2366.96L677.401 2370.08L677.405 2370.09L677.41 2370.09L683.671 2366.96ZM676.853 2228.36V2221.36H669.853V2228.36H676.853ZM701.995 2228.36H708.995V2221.36H701.995V2228.36ZM712.009 2359.19L706.909 2363.98L706.922 2364L706.934 2364.01L712.009 2359.19ZM756.86 2365.05L753.785 2358.76L753.771 2358.77L753.757 2358.77L756.86 2365.05ZM773.267 2350.35L767.471 2346.42L767.457 2346.44L767.442 2346.46L773.267 2350.35ZM786.978 2325.1V2228.36H772.978V2325.1H786.978ZM779.978 2235.36H805.12V2221.36H779.978V2235.36ZM798.12 2228.36V2392H812.12V2228.36H798.12ZM805.12 2385H779.978V2399H805.12V2385ZM786.978 2392V2364.3H772.978V2392H786.978ZM779.978 2357.3H778.274V2371.3H779.978V2357.3ZM771.918 2361.37C768.634 2368.48 763.495 2374.64 756.288 2379.82L764.463 2391.18C773.45 2384.72 780.243 2376.74 784.629 2367.23L771.918 2361.37ZM756.321 2379.8C749.671 2384.52 740.958 2387.13 729.694 2387.13V2401.13C743.147 2401.13 754.887 2397.99 764.43 2391.21L756.321 2379.8ZM729.694 2387.13C720.521 2387.13 712.638 2385.13 705.853 2381.32L698.99 2393.52C708.114 2398.65 718.412 2401.13 729.694 2401.13V2387.13ZM705.894 2381.34C699.269 2377.56 693.93 2371.83 689.932 2363.83L677.41 2370.09C682.504 2380.28 689.664 2388.19 698.948 2393.5L705.894 2381.34ZM689.942 2363.85C686.017 2355.94 683.853 2345.55 683.853 2332.34H669.853C669.853 2346.97 672.235 2359.66 677.401 2370.08L689.942 2363.85ZM683.853 2332.34V2228.36H669.853V2332.34H683.853ZM676.853 2235.36H701.995V2221.36H676.853V2235.36ZM694.995 2228.36V2330.64H708.995V2228.36H694.995ZM694.995 2330.64C694.995 2343.93 698.752 2355.3 706.909 2363.98L717.11 2354.39C711.914 2348.87 708.995 2341.21 708.995 2330.64H694.995ZM706.934 2364.01C715.097 2372.6 725.573 2376.84 737.791 2376.84V2362.84C729.128 2362.84 722.416 2359.98 717.084 2354.37L706.934 2364.01ZM737.791 2376.84C745.271 2376.84 752.684 2374.92 759.963 2371.32L753.757 2358.77C748.111 2361.56 742.81 2362.84 737.791 2362.84V2376.84ZM759.936 2371.33C767.683 2367.55 774.065 2361.77 779.091 2354.23L767.442 2346.46C763.661 2352.13 759.105 2356.16 753.785 2358.76L759.936 2371.33ZM779.062 2354.27C784.516 2346.22 786.978 2336.33 786.978 2325.1H772.978C772.978 2334.32 770.966 2341.26 767.471 2346.42L779.062 2354.27ZM851.17 2392H844.17V2399H851.17V2392ZM851.17 2228.36V2221.36H844.17V2228.36H851.17ZM875.459 2228.36H882.459V2221.36H875.459V2228.36ZM875.459 2253.08H868.459V2260.08H875.459V2253.08ZM877.164 2253.08V2260.08H882.045L883.732 2255.5L877.164 2253.08ZM893.357 2233.37L889.561 2227.49L889.561 2227.49L893.357 2233.37ZM932.988 2226.23H939.988V2219.9L933.684 2219.27L932.988 2226.23ZM932.988 2251.8L931.29 2258.59L939.988 2260.77V2251.8H932.988ZM927.128 2250.84L925.978 2257.75L926.069 2257.76L926.161 2257.78L927.128 2250.84ZM896.34 2255.1L899.612 2261.29L899.625 2261.29L899.638 2261.28L896.34 2255.1ZM881.638 2268.74L875.694 2265.04L875.688 2265.05L875.682 2265.06L881.638 2268.74ZM876.312 2392V2399H883.312V2392H876.312ZM858.17 2392V2228.36H844.17V2392H858.17ZM851.17 2235.36H875.459V2221.36H851.17V2235.36ZM868.459 2228.36V2253.08H882.459V2228.36H868.459ZM875.459 2260.08H877.164V2246.08H875.459V2260.08ZM883.732 2255.5C886.149 2248.94 890.51 2243.54 897.153 2239.25L889.561 2227.49C880.579 2233.29 874.145 2241.03 870.595 2250.66L883.732 2255.5ZM897.153 2239.25C903.772 2234.98 911.247 2232.81 919.778 2232.81V2218.81C908.706 2218.81 898.567 2221.68 889.561 2227.49L897.153 2239.25ZM919.778 2232.81C921.543 2232.81 923.786 2232.84 926.523 2232.91L926.882 2218.92C924.078 2218.84 921.705 2218.81 919.778 2218.81V2232.81ZM926.523 2232.91C929.248 2232.98 931.135 2233.08 932.291 2233.2L933.684 2219.27C931.999 2219.1 929.696 2218.99 926.882 2218.92L926.523 2232.91ZM925.988 2226.23V2251.8H939.988V2226.23H925.988ZM934.686 2245.01C933.399 2244.69 931.045 2244.32 928.096 2243.91L926.161 2257.78C929.319 2258.22 930.872 2258.49 931.29 2258.59L934.686 2245.01ZM928.279 2243.94C924.879 2243.37 921.331 2243.1 917.647 2243.1V2257.1C920.639 2257.1 923.412 2257.32 925.978 2257.75L928.279 2243.94ZM917.647 2243.1C908.685 2243.1 900.426 2244.99 893.042 2248.93L899.638 2261.28C904.754 2258.55 910.7 2257.1 917.647 2257.1V2243.1ZM893.068 2248.92C885.816 2252.75 879.984 2258.15 875.694 2265.04L887.582 2272.44C890.537 2267.69 894.507 2263.99 899.612 2261.29L893.068 2248.92ZM875.682 2265.06C871.386 2272.02 869.312 2279.89 869.312 2288.45H883.312C883.312 2282.24 884.788 2276.96 887.595 2272.42L875.682 2265.06ZM869.312 2288.45V2392H883.312V2288.45H869.312ZM876.312 2385H851.17V2399H876.312V2385ZM1141.77 2242V2249H1150.12L1148.66 2240.78L1141.77 2242ZM1115.35 2242L1108.49 2243.41L1109.64 2249H1115.35V2242ZM1107.14 2221.97L1101.32 2225.85L1101.34 2225.88L1101.35 2225.9L1107.14 2221.97ZM1093.08 2207.48L1088.96 2213.14L1089.01 2213.17L1089.05 2213.2L1093.08 2207.48ZM1074.86 2198.53L1072.87 2205.24L1072.87 2205.24L1074.86 2198.53ZM1018.08 2205.57L1014.38 2199.62L1014.37 2199.63L1014.36 2199.63L1018.08 2205.57ZM992.62 2235.08L986.325 2232.01L986.318 2232.03L986.312 2232.04L992.62 2235.08ZM992.62 2330.74L986.312 2333.78L986.318 2333.79L986.325 2333.8L992.62 2330.74ZM1018.08 2360.25L1014.36 2366.18L1014.37 2366.19L1014.38 2366.2L1018.08 2360.25ZM1074.86 2367.28L1072.87 2360.58L1072.87 2360.58L1074.86 2367.28ZM1093.08 2358.44L1097.15 2364.14L1097.16 2364.13L1097.16 2364.13L1093.08 2358.44ZM1107.14 2343.85L1101.33 2339.95L1101.33 2339.96L1101.32 2339.96L1107.14 2343.85ZM1115.35 2323.82V2316.82H1109.65L1108.49 2322.4L1115.35 2323.82ZM1141.77 2323.82L1148.66 2325.05L1150.13 2316.82H1141.77V2323.82ZM1130.9 2353.75L1124.89 2350.17L1124.89 2350.17L1130.9 2353.75ZM1111.3 2376.23L1115.61 2381.75L1115.63 2381.74L1115.64 2381.72L1111.3 2376.23ZM1084.99 2390.19L1082.8 2383.54L1082.79 2383.54L1082.79 2383.54L1084.99 2390.19ZM1004.34 2381.35L1000.62 2387.28L1000.62 2387.28L1004.34 2381.35ZM970.142 2342.57L976.413 2339.46L976.413 2339.46L970.142 2342.57ZM1084.99 2175.63L1082.79 2182.27L1082.79 2182.28L1082.8 2182.28L1084.99 2175.63ZM1111.3 2189.69L1106.96 2195.18L1106.97 2195.19L1106.99 2195.21L1111.3 2189.69ZM1130.9 2212.06L1124.89 2215.65L1124.9 2215.66L1124.9 2215.67L1130.9 2212.06ZM1141.77 2235H1115.35V2249H1141.77V2235ZM1122.2 2240.59C1120.48 2232.19 1117.42 2224.64 1112.94 2218.04L1101.35 2225.9C1104.69 2230.81 1107.09 2236.61 1108.49 2243.41L1122.2 2240.59ZM1112.97 2218.09C1108.66 2211.63 1103.37 2206.18 1097.12 2201.76L1089.05 2213.2C1093.87 2216.6 1097.95 2220.8 1101.32 2225.85L1112.97 2218.09ZM1097.2 2201.82C1091.07 2197.36 1084.28 2194.03 1076.86 2191.83L1072.87 2205.24C1078.81 2207.01 1084.16 2209.65 1088.96 2213.14L1097.2 2201.82ZM1076.86 2191.83C1069.51 2189.64 1061.88 2188.55 1053.98 2188.55V2202.55C1060.58 2202.55 1066.86 2203.45 1072.87 2205.24L1076.86 2191.83ZM1053.98 2188.55C1039.53 2188.55 1026.27 2192.22 1014.38 2199.62L1021.78 2211.51C1031.34 2205.56 1042.02 2202.55 1053.98 2202.55V2188.55ZM1014.36 2199.63C1002.44 2207.11 993.132 2218.02 986.325 2232.01L998.915 2238.14C1004.75 2226.14 1012.42 2217.38 1021.8 2211.5L1014.36 2199.63ZM986.312 2232.04C979.488 2246.23 976.245 2263.28 976.245 2282.91H990.245C990.245 2264.76 993.252 2249.91 998.929 2238.11L986.312 2232.04ZM976.245 2282.91C976.245 2302.54 979.488 2319.59 986.312 2333.78L998.929 2327.71C993.252 2315.9 990.245 2301.06 990.245 2282.91H976.245ZM986.325 2333.8C993.132 2347.8 1002.44 2358.71 1014.36 2366.18L1021.8 2354.32C1012.42 2348.44 1004.75 2339.68 998.915 2327.68L986.325 2333.8ZM1014.38 2366.2C1026.27 2373.6 1039.53 2377.27 1053.98 2377.27V2363.27C1042.02 2363.27 1031.34 2360.26 1021.78 2354.31L1014.38 2366.2ZM1053.98 2377.27C1061.88 2377.27 1069.51 2376.18 1076.86 2373.99L1072.87 2360.58C1066.86 2362.36 1060.58 2363.27 1053.98 2363.27V2377.27ZM1076.86 2373.99C1084.25 2371.79 1091.03 2368.51 1097.15 2364.14L1089.01 2352.75C1084.2 2356.19 1078.83 2358.8 1072.87 2360.58L1076.86 2373.99ZM1097.16 2364.13C1103.4 2359.65 1108.67 2354.17 1112.97 2347.73L1101.32 2339.96C1097.95 2345.03 1093.85 2349.28 1089 2352.76L1097.16 2364.13ZM1112.96 2347.75C1117.41 2341.1 1120.47 2333.57 1122.2 2325.24L1108.49 2322.4C1107.1 2329.12 1104.69 2334.94 1101.33 2339.95L1112.96 2347.75ZM1115.35 2330.82H1141.77V2316.82H1115.35V2330.82ZM1134.88 2322.59C1133.02 2332.99 1129.67 2342.16 1124.89 2350.17L1136.91 2357.34C1142.64 2347.74 1146.54 2336.94 1148.66 2325.05L1134.88 2322.59ZM1124.89 2350.17C1120.06 2358.27 1114.08 2365.11 1106.96 2370.74L1115.64 2381.72C1124.14 2375 1131.23 2366.86 1136.91 2357.34L1124.89 2350.17ZM1106.99 2370.72C1099.83 2376.31 1091.79 2380.59 1082.8 2383.54L1087.17 2396.84C1097.64 2393.4 1107.14 2388.37 1115.61 2381.75L1106.99 2370.72ZM1082.79 2383.54C1073.89 2386.49 1064.31 2387.98 1053.98 2387.98V2401.98C1065.68 2401.98 1076.76 2400.28 1087.18 2396.83L1082.79 2383.54ZM1053.98 2387.98C1036.57 2387.98 1021.34 2383.75 1008.06 2375.42L1000.62 2387.28C1016.32 2397.13 1034.18 2401.98 1053.98 2401.98V2387.98ZM1008.06 2375.42C994.767 2367.08 984.205 2355.18 976.413 2339.46L963.87 2345.68C972.698 2363.48 984.934 2377.43 1000.62 2387.28L1008.06 2375.42ZM976.413 2339.46C968.68 2323.86 964.677 2305.09 964.677 2282.91H950.677C950.677 2306.76 954.984 2327.75 963.87 2345.68L976.413 2339.46ZM964.677 2282.91C964.677 2260.73 968.68 2241.96 976.413 2226.36L963.87 2220.14C954.984 2238.07 950.677 2259.06 950.677 2282.91H964.677ZM976.413 2226.36C984.205 2210.64 994.767 2198.74 1008.06 2190.4L1000.62 2178.54C984.934 2188.38 972.698 2202.33 963.87 2220.14L976.413 2226.36ZM1008.06 2190.4C1021.34 2182.07 1036.57 2177.84 1053.98 2177.84V2163.84C1034.18 2163.84 1016.32 2168.69 1000.62 2178.54L1008.06 2190.4ZM1053.98 2177.84C1064.31 2177.84 1073.89 2179.33 1082.79 2182.27L1087.18 2168.98C1076.76 2165.53 1065.68 2163.84 1053.98 2163.84V2177.84ZM1082.8 2182.28C1091.77 2185.23 1099.81 2189.53 1106.96 2195.18L1115.64 2184.2C1107.17 2177.5 1097.66 2172.42 1087.17 2168.98L1082.8 2182.28ZM1106.99 2195.21C1114.1 2200.76 1120.06 2207.56 1124.89 2215.65L1136.91 2208.48C1131.23 2198.95 1124.13 2190.84 1115.61 2184.18L1106.99 2195.21ZM1124.9 2215.67C1129.67 2223.59 1133.02 2232.74 1134.88 2243.22L1148.66 2240.78C1146.54 2228.81 1142.65 2218.01 1136.9 2208.46L1124.9 2215.67ZM1181.05 2392H1174.05V2399H1181.05V2392ZM1181.05 2228.36V2221.36H1174.05V2228.36H1181.05ZM1206.19 2228.36H1213.19V2221.36H1206.19V2228.36ZM1206.19 2392V2399H1213.19V2392H1206.19ZM1181.16 2196.08L1176.31 2201.14L1176.34 2201.16L1176.36 2201.18L1181.16 2196.08ZM1181.16 2172.01L1176.36 2166.91L1176.34 2166.93L1176.31 2166.96L1181.16 2172.01ZM1206.41 2172.01L1201.56 2177.06L1201.59 2177.08L1201.61 2177.11L1206.41 2172.01ZM1206.41 2196.08L1201.61 2190.98L1201.59 2191.01L1201.56 2191.03L1206.41 2196.08ZM1188.05 2392V2228.36H1174.05V2392H1188.05ZM1181.05 2235.36H1206.19V2221.36H1181.05V2235.36ZM1199.19 2228.36V2392H1213.19V2228.36H1199.19ZM1206.19 2385H1181.05V2399H1206.19V2385ZM1193.84 2194.09C1190.71 2194.09 1188.2 2193.09 1185.95 2190.98L1176.36 2201.18C1181.22 2205.75 1187.17 2208.09 1193.84 2208.09V2194.09ZM1186 2191.03C1183.86 2188.97 1182.94 2186.76 1182.94 2184.05H1168.94C1168.94 2190.7 1171.5 2196.52 1176.31 2201.14L1186 2191.03ZM1182.94 2184.05C1182.94 2181.33 1183.86 2179.12 1186 2177.06L1176.31 2166.96C1171.5 2171.57 1168.94 2177.39 1168.94 2184.05H1182.94ZM1185.95 2177.11C1188.2 2175 1190.71 2174 1193.84 2174V2160C1187.17 2160 1181.22 2162.34 1176.36 2166.91L1185.95 2177.11ZM1193.84 2174C1196.96 2174 1199.41 2174.99 1201.56 2177.06L1211.25 2166.96C1206.45 2162.34 1200.51 2160 1193.84 2160V2174ZM1201.61 2177.11C1203.82 2179.18 1204.73 2181.37 1204.73 2184.05H1218.73C1218.73 2177.34 1216.1 2171.51 1211.2 2166.91L1201.61 2177.11ZM1204.73 2184.05C1204.73 2186.72 1203.82 2188.91 1201.61 2190.98L1211.2 2201.18C1216.1 2196.58 1218.73 2190.75 1218.73 2184.05H1204.73ZM1201.56 2191.03C1199.41 2193.1 1196.96 2194.09 1193.84 2194.09V2208.09C1200.51 2208.09 1206.45 2205.75 1211.25 2201.14L1201.56 2191.03ZM1323.41 2228.36H1330.41V2221.36H1323.41V2228.36ZM1323.41 2249.67V2256.67H1330.41V2249.67H1323.41ZM1238.61 2249.67H1231.61V2256.67H1238.61V2249.67ZM1238.61 2228.36V2221.36H1231.61V2228.36H1238.61ZM1263.32 2189.16V2182.16H1256.32V2189.16H1263.32ZM1288.47 2189.16H1295.47V2182.16H1288.47V2189.16ZM1291.55 2361.11L1285.5 2364.62L1285.54 2364.69L1285.58 2364.76L1291.55 2361.11ZM1299.65 2368.14L1297.22 2374.7L1297.31 2374.73L1297.4 2374.76L1299.65 2368.14ZM1317.02 2369.41L1318.12 2376.33L1318.26 2376.31L1318.39 2376.28L1317.02 2369.41ZM1321.28 2368.56L1328.11 2367.02L1326.6 2360.36L1319.91 2361.7L1321.28 2368.56ZM1326.39 2391.15L1328.85 2397.7L1334.57 2395.56L1333.22 2389.6L1326.39 2391.15ZM1319.25 2393.07L1317.82 2386.21L1317.74 2386.23L1317.67 2386.25L1319.25 2393.07ZM1286.76 2389.55L1283.87 2395.93L1283.89 2395.93L1283.9 2395.94L1286.76 2389.55ZM1269.93 2375.59L1264.21 2379.63L1264.22 2379.65L1264.24 2379.67L1269.93 2375.59ZM1316.41 2228.36V2249.67H1330.41V2228.36H1316.41ZM1323.41 2242.67H1238.61V2256.67H1323.41V2242.67ZM1245.61 2249.67V2228.36H1231.61V2249.67H1245.61ZM1238.61 2235.36H1323.41V2221.36H1238.61V2235.36ZM1263.32 2196.16H1288.47V2182.16H1263.32V2196.16ZM1281.47 2189.16V2345.12H1295.47V2189.16H1281.47ZM1281.47 2345.12C1281.47 2352.67 1282.52 2359.48 1285.5 2364.62L1297.61 2357.59C1296.47 2355.63 1295.47 2351.78 1295.47 2345.12H1281.47ZM1285.58 2364.76C1288.39 2369.34 1292.24 2372.86 1297.22 2374.7L1302.08 2361.57C1300.53 2361 1298.98 2359.83 1297.52 2357.45L1285.58 2364.76ZM1297.4 2374.76C1301.49 2376.16 1305.77 2376.84 1310.2 2376.84V2362.84C1307.24 2362.84 1304.49 2362.39 1301.91 2361.51L1297.4 2374.76ZM1310.2 2376.84C1313.16 2376.84 1315.84 2376.69 1318.12 2376.33L1315.91 2362.5C1314.64 2362.71 1312.77 2362.84 1310.2 2362.84V2376.84ZM1318.39 2376.28C1320.16 2375.92 1321.59 2375.64 1322.65 2375.43L1319.91 2361.7C1318.84 2361.91 1317.42 2362.2 1315.64 2362.55L1318.39 2376.28ZM1314.45 2370.11L1319.56 2392.69L1333.22 2389.6L1328.11 2367.02L1314.45 2370.11ZM1323.93 2384.59C1322.72 2385.05 1320.73 2385.6 1317.82 2386.21L1320.69 2399.92C1323.88 2399.25 1326.66 2398.52 1328.85 2397.7L1323.93 2384.59ZM1317.67 2386.25C1315.32 2386.79 1312.03 2387.13 1307.64 2387.13V2401.13C1312.63 2401.13 1317.08 2400.76 1320.84 2399.88L1317.67 2386.25ZM1307.64 2387.13C1301.58 2387.13 1295.59 2385.83 1289.62 2383.16L1283.9 2395.94C1291.57 2399.37 1299.5 2401.13 1307.64 2401.13V2387.13ZM1289.65 2383.17C1284.06 2380.65 1279.41 2376.81 1275.62 2371.52L1264.24 2379.67C1269.4 2386.88 1275.96 2392.35 1283.87 2395.93L1289.65 2383.17ZM1275.65 2371.56C1272.26 2366.75 1270.32 2360.37 1270.32 2351.94H1256.32C1256.32 2362.55 1258.79 2371.93 1264.21 2379.63L1275.65 2371.56ZM1270.32 2351.94V2189.16H1256.32V2351.94H1270.32ZM1366.02 2452.3L1367.48 2445.45L1367.41 2445.44L1367.34 2445.42L1366.02 2452.3ZM1359.1 2450.38L1352.37 2448.44L1350.76 2454.04L1355.97 2456.64L1359.1 2450.38ZM1365.49 2428.22L1367.22 2421.44L1360.65 2419.76L1358.76 2426.28L1365.49 2428.22ZM1381.68 2429.93L1381.05 2422.95L1381.05 2422.95L1381.68 2429.93ZM1394.15 2423.64L1389.2 2418.69L1389.15 2418.74L1389.1 2418.79L1394.15 2423.64ZM1404.27 2405.64L1410.84 2408.05L1410.84 2408.05L1404.27 2405.64ZM1408.96 2392.85L1415.53 2395.26L1416.41 2392.85L1415.53 2390.44L1408.96 2392.85ZM1348.44 2228.36V2221.36H1338.41L1341.87 2230.78L1348.44 2228.36ZM1375.72 2228.36L1382.33 2226.07L1380.7 2221.36H1375.72V2228.36ZM1420.89 2358.76L1414.27 2361.05L1415.9 2365.76H1420.89V2358.76ZM1422.59 2358.76V2365.76H1427.58L1429.21 2361.05L1422.59 2358.76ZM1467.76 2228.36V2221.36H1462.78L1461.15 2226.07L1467.76 2228.36ZM1495.03 2228.36L1501.6 2230.8L1505.09 2221.36H1495.03V2228.36ZM1425.57 2415.86L1419.01 2413.43L1419.01 2413.44L1425.57 2415.86ZM1413.96 2436.85L1408.58 2432.37L1408.57 2432.39L1408.56 2432.4L1413.96 2436.85ZM1397.88 2449.32L1395.05 2442.91L1395.03 2442.92L1395.02 2442.92L1397.88 2449.32ZM1377.42 2446.36C1373.53 2446.36 1370.24 2446.04 1367.48 2445.45L1364.57 2459.15C1368.48 2459.98 1372.79 2460.36 1377.42 2460.36V2446.36ZM1367.34 2445.42C1365.79 2445.13 1364.57 2444.85 1363.66 2444.59C1363.2 2444.47 1362.85 2444.36 1362.6 2444.27C1362.34 2444.17 1362.23 2444.12 1362.23 2444.12L1355.97 2456.64C1358.2 2457.76 1361.36 2458.53 1364.71 2459.17L1367.34 2445.42ZM1365.82 2452.32L1372.22 2430.16L1358.76 2426.28L1352.37 2448.44L1365.82 2452.32ZM1363.75 2435C1370.39 2436.7 1376.62 2437.42 1382.32 2436.9L1381.05 2422.95C1377.37 2423.29 1372.81 2422.87 1367.22 2421.44L1363.75 2435ZM1382.32 2436.9C1388.87 2436.3 1394.54 2433.33 1399.19 2428.49L1389.1 2418.79C1386.51 2421.48 1383.87 2422.7 1381.05 2422.95L1382.32 2436.9ZM1399.1 2428.59C1403.84 2423.85 1407.65 2416.74 1410.84 2408.05L1397.7 2403.22C1394.78 2411.15 1391.84 2416.05 1389.2 2418.69L1399.1 2428.59ZM1410.84 2408.05L1415.53 2395.26L1402.38 2390.44L1397.7 2403.23L1410.84 2408.05ZM1415.53 2390.44L1355.01 2225.95L1341.87 2230.78L1402.39 2395.27L1415.53 2390.44ZM1348.44 2235.36H1375.72V2221.36H1348.44V2235.36ZM1369.1 2230.65L1414.27 2361.05L1427.5 2356.47L1382.33 2226.07L1369.1 2230.65ZM1420.89 2365.76H1422.59V2351.76H1420.89V2365.76ZM1429.21 2361.05L1474.38 2230.65L1461.15 2226.07L1415.98 2356.47L1429.21 2361.05ZM1467.76 2235.36H1495.03V2221.36H1467.76V2235.36ZM1488.47 2225.93L1419.01 2413.43L1432.14 2418.3L1501.6 2230.8L1488.47 2225.93ZM1419.01 2413.44C1416.09 2421.32 1412.58 2427.57 1408.58 2432.37L1419.34 2441.33C1424.58 2435.05 1428.81 2427.31 1432.14 2418.29L1419.01 2413.44ZM1408.56 2432.4C1404.57 2437.25 1400.07 2440.69 1395.05 2442.91L1400.71 2455.72C1407.9 2452.54 1414.12 2447.68 1419.37 2441.3L1408.56 2432.4ZM1395.02 2442.92C1390.01 2445.17 1384.18 2446.36 1377.42 2446.36V2460.36C1385.86 2460.36 1393.67 2458.86 1400.73 2455.71L1395.02 2442.92ZM1531.63 2392H1524.63V2399H1531.63V2392ZM1531.63 2173.82V2166.82H1524.63V2173.82H1531.63ZM1663.31 2173.82H1670.31V2166.82H1663.31V2173.82ZM1663.31 2197.26V2204.26H1670.31V2197.26H1663.31ZM1558.05 2197.26V2190.26H1551.05V2197.26H1558.05ZM1558.05 2270.98H1551.05V2277.98H1558.05V2270.98ZM1656.49 2270.98H1663.49V2263.98H1656.49V2270.98ZM1656.49 2294.41V2301.41H1663.49V2294.41H1656.49ZM1558.05 2294.41V2287.41H1551.05V2294.41H1558.05ZM1558.05 2368.56H1551.05V2375.56H1558.05V2368.56ZM1665.01 2368.56H1672.01V2361.56H1665.01V2368.56ZM1665.01 2392V2399H1672.01V2392H1665.01ZM1538.63 2392V2173.82H1524.63V2392H1538.63ZM1531.63 2180.82H1663.31V2166.82H1531.63V2180.82ZM1656.31 2173.82V2197.26H1670.31V2173.82H1656.31ZM1663.31 2190.26H1558.05V2204.26H1663.31V2190.26ZM1551.05 2197.26V2270.98H1565.05V2197.26H1551.05ZM1558.05 2277.98H1656.49V2263.98H1558.05V2277.98ZM1649.49 2270.98V2294.41H1663.49V2270.98H1649.49ZM1656.49 2287.41H1558.05V2301.41H1656.49V2287.41ZM1551.05 2294.41V2368.56H1565.05V2294.41H1551.05ZM1558.05 2375.56H1665.01V2361.56H1558.05V2375.56ZM1658.01 2368.56V2392H1672.01V2368.56H1658.01ZM1665.01 2385H1531.63V2399H1665.01V2385ZM1841.32 2228.36L1847.89 2230.79L1851.38 2221.36H1841.32V2228.36ZM1780.81 2392V2399H1785.69L1787.38 2394.43L1780.81 2392ZM1755.24 2392L1748.68 2394.43L1750.37 2399H1755.24V2392ZM1694.73 2228.36V2221.36H1684.68L1688.17 2230.79L1694.73 2228.36ZM1722.01 2228.36L1728.62 2226.07L1726.99 2221.36H1722.01V2228.36ZM1767.18 2358.76L1760.56 2361.05L1762.19 2365.76H1767.18V2358.76ZM1768.88 2358.76V2365.76H1773.86L1775.5 2361.05L1768.88 2358.76ZM1814.05 2228.36V2221.36H1809.07L1807.44 2226.07L1814.05 2228.36ZM1834.76 2225.94L1774.25 2389.57L1787.38 2394.43L1847.89 2230.79L1834.76 2225.94ZM1780.81 2385H1755.24V2399H1780.81V2385ZM1761.81 2389.57L1701.3 2225.94L1688.17 2230.79L1748.68 2394.43L1761.81 2389.57ZM1694.73 2235.36H1722.01V2221.36H1694.73V2235.36ZM1715.39 2230.65L1760.56 2361.05L1773.79 2356.47L1728.62 2226.07L1715.39 2230.65ZM1767.18 2365.76H1768.88V2351.76H1767.18V2365.76ZM1775.5 2361.05L1820.67 2230.65L1807.44 2226.07L1762.27 2356.47L1775.5 2361.05ZM1814.05 2235.36H1841.32V2221.36H1814.05V2235.36ZM1896.46 2384.97L1892.77 2390.92L1892.79 2390.93L1892.82 2390.95L1896.46 2384.97ZM1870.14 2355.57L1863.84 2358.61L1863.85 2358.63L1863.86 2358.65L1870.14 2355.57ZM1870.14 2267.14L1863.83 2264.11L1863.83 2264.12L1863.83 2264.12L1870.14 2267.14ZM1895.92 2237.1L1899.74 2242.96L1899.75 2242.96L1895.92 2237.1ZM1959.95 2230.49L1962.21 2223.87L1962.21 2223.87L1959.95 2230.49ZM1982.64 2244.34L1977.85 2249.45L1977.87 2249.46L1977.88 2249.48L1982.64 2244.34ZM1998.94 2269.49L2005.47 2266.96L2005.47 2266.96L1998.94 2269.49ZM2005.01 2318.7V2325.7H2012.01V2318.7H2005.01ZM1878.88 2318.7H1871.88V2325.7H1878.88V2318.7ZM1878.88 2296.97V2289.97H1871.88V2296.97H1878.88ZM1979.45 2296.97V2303.97H1986.45V2296.97H1979.45ZM1973.91 2272.26L1967.64 2275.39L1967.66 2275.41L1967.67 2275.43L1973.91 2272.26ZM1958.35 2255.1L1954.63 2261.03L1954.64 2261.04L1954.66 2261.05L1958.35 2255.1ZM1908.71 2256.28L1912.63 2262.07L1912.64 2262.07L1912.64 2262.07L1908.71 2256.28ZM1891.98 2275.45L1885.71 2272.34L1885.71 2272.34L1891.98 2275.45ZM1892.51 2346.72L1886.24 2349.83L1886.26 2349.86L1886.27 2349.9L1892.51 2346.72ZM1910.52 2366.22L1906.99 2372.27L1907.01 2372.28L1907.03 2372.29L1910.52 2366.22ZM1955.16 2370.05L1957.45 2376.67L1957.47 2376.66L1957.5 2376.65L1955.16 2370.05ZM1969.11 2361.53L1973.97 2366.57L1973.99 2366.55L1974.02 2366.53L1969.11 2361.53ZM1978.17 2347.26L1980.06 2340.52L1973.87 2338.78L1971.61 2344.8L1978.17 2347.26ZM2002.46 2354.07L2009.14 2356.15L2011.27 2349.28L2004.35 2347.33L2002.46 2354.07ZM1989.57 2375.81L1994.57 2380.7L1994.59 2380.68L1994.6 2380.67L1989.57 2375.81ZM1967.19 2390.3L1969.7 2396.83L1969.73 2396.82L1969.75 2396.81L1967.19 2390.3ZM1937.26 2388.41C1922.54 2388.41 1910.25 2385.17 1900.1 2378.99L1892.82 2390.95C1905.53 2398.69 1920.44 2402.41 1937.26 2402.41V2388.41ZM1900.14 2379.02C1889.95 2372.71 1882.05 2363.93 1876.42 2352.48L1863.86 2358.65C1870.59 2372.34 1880.24 2383.16 1892.77 2390.92L1900.14 2379.02ZM1876.44 2352.52C1870.88 2340.99 1867.98 2327.37 1867.98 2311.46H1853.98C1853.98 2329.07 1857.19 2344.85 1863.84 2358.61L1876.44 2352.52ZM1867.98 2311.46C1867.98 2295.55 1870.87 2281.84 1876.46 2270.16L1863.83 2264.12C1857.19 2278.01 1853.98 2293.84 1853.98 2311.46H1867.98ZM1876.45 2270.17C1882.12 2258.37 1889.9 2249.38 1899.74 2242.96L1892.1 2231.23C1879.93 2239.17 1870.52 2250.2 1863.83 2264.11L1876.45 2270.17ZM1899.75 2242.96C1909.56 2236.54 1921.13 2233.23 1934.7 2233.23V2219.23C1918.73 2219.23 1904.44 2223.17 1892.09 2231.24L1899.75 2242.96ZM1934.7 2233.23C1942.43 2233.23 1950.08 2234.52 1957.69 2237.12L1962.21 2223.87C1953.2 2220.79 1944.02 2219.23 1934.7 2219.23V2233.23ZM1957.69 2237.12C1965 2239.62 1971.71 2243.69 1977.85 2249.45L1987.43 2239.24C1979.93 2232.21 1971.52 2227.05 1962.21 2223.87L1957.69 2237.12ZM1977.88 2249.48C1983.78 2254.94 1988.67 2262.37 1992.41 2272.02L2005.47 2266.96C2001.11 2255.72 1995.14 2246.39 1987.4 2239.21L1977.88 2249.48ZM1992.41 2272.02C1996.06 2281.41 1998.01 2293.35 1998.01 2308.05H2012.01C2012.01 2292.21 2009.92 2278.44 2005.47 2266.96L1992.41 2272.02ZM1998.01 2308.05V2318.7H2012.01V2308.05H1998.01ZM2005.01 2311.7H1878.88V2325.7H2005.01V2311.7ZM1885.88 2318.7V2296.97H1871.88V2318.7H1885.88ZM1878.88 2303.97H1979.45V2289.97H1878.88V2303.97ZM1986.45 2296.97C1986.45 2286.78 1984.4 2277.43 1980.14 2269.08L1967.67 2275.43C1970.8 2281.57 1972.45 2288.69 1972.45 2296.97H1986.45ZM1980.17 2269.13C1975.98 2260.75 1969.91 2254.04 1962.04 2249.16L1954.66 2261.05C1960.28 2264.54 1964.59 2269.28 1967.64 2275.39L1980.17 2269.13ZM1962.07 2249.17C1954.12 2244.18 1944.9 2241.82 1934.7 2241.82V2255.82C1942.68 2255.82 1949.23 2257.64 1954.63 2261.03L1962.07 2249.17ZM1934.7 2241.82C1923.48 2241.82 1913.4 2244.62 1904.77 2250.49L1912.64 2262.07C1918.65 2257.98 1925.9 2255.82 1934.7 2255.82V2241.82ZM1904.78 2250.48C1896.53 2256.06 1890.15 2263.38 1885.71 2272.34L1898.25 2278.56C1901.63 2271.75 1906.39 2266.29 1912.63 2262.07L1904.78 2250.48ZM1885.71 2272.34C1881.31 2281.22 1879.12 2290.74 1879.12 2300.81H1893.12C1893.12 2292.84 1894.84 2285.45 1898.25 2278.56L1885.71 2272.34ZM1879.12 2300.81V2315.3H1893.12V2300.81H1879.12ZM1879.12 2315.3C1879.12 2328.43 1881.38 2340.03 1886.24 2349.83L1898.78 2343.61C1895.12 2336.22 1893.12 2326.88 1893.12 2315.3H1879.12ZM1886.27 2349.9C1891.17 2359.52 1898.07 2367.06 1906.99 2372.27L1914.05 2360.17C1907.63 2356.43 1902.53 2350.97 1898.75 2343.55L1886.27 2349.9ZM1907.03 2372.29C1915.91 2377.39 1926.06 2379.82 1937.26 2379.82V2365.82C1928.14 2365.82 1920.46 2363.86 1914 2360.15L1907.03 2372.29ZM1937.26 2379.82C1944.51 2379.82 1951.27 2378.81 1957.45 2376.67L1952.86 2363.44C1948.39 2364.99 1943.21 2365.82 1937.26 2365.82V2379.82ZM1957.5 2376.65C1963.78 2374.42 1969.31 2371.07 1973.97 2366.57L1964.25 2356.49C1961.11 2359.52 1957.32 2361.85 1952.81 2363.46L1957.5 2376.65ZM1974.02 2366.53C1978.73 2361.9 1982.27 2356.25 1984.72 2349.71L1971.61 2344.8C1969.8 2349.63 1967.31 2353.49 1964.21 2356.54L1974.02 2366.53ZM1976.28 2354L2000.57 2360.81L2004.35 2347.33L1980.06 2340.52L1976.28 2354ZM1995.77 2352C1993.54 2359.18 1989.81 2365.48 1984.53 2370.94L1994.6 2380.67C2001.39 2373.64 2006.26 2365.44 2009.14 2356.15L1995.77 2352ZM1984.56 2370.91C1979.28 2376.31 1972.69 2380.62 1964.64 2383.78L1969.75 2396.81C1979.45 2393.01 1987.77 2387.66 1994.57 2380.7L1984.56 2370.91ZM1964.68 2383.76C1956.73 2386.82 1947.62 2388.41 1937.26 2388.41V2402.41C1949.06 2402.41 1959.9 2400.59 1969.7 2396.83L1964.68 2383.76ZM2068.4 2392V2399H2075.4V2392H2068.4ZM2043.26 2392H2036.26V2399H2043.26V2392ZM2043.26 2228.36V2221.36H2036.26V2228.36H2043.26ZM2067.55 2228.36H2074.55V2221.36H2067.55V2228.36ZM2067.55 2253.93H2060.55V2260.93H2067.55V2253.93ZM2069.68 2253.93V2260.93H2074.16L2076.04 2256.87L2069.68 2253.93ZM2087.15 2233.9L2090.95 2239.78L2090.97 2239.77L2090.99 2239.76L2087.15 2233.9ZM2146.49 2233.05L2143.13 2239.19L2143.15 2239.2L2143.17 2239.21L2146.49 2233.05ZM2165.88 2253.51L2159.63 2256.66L2159.63 2256.67L2159.64 2256.68L2165.88 2253.51ZM2172.8 2392V2399H2179.8V2392H2172.8ZM2147.66 2392H2140.66V2399H2147.66V2392ZM2137.65 2259.68L2132.5 2264.43L2132.51 2264.44L2132.52 2264.45L2137.65 2259.68ZM2088.64 2254.04L2085.27 2247.91L2085.25 2247.91L2085.24 2247.92L2088.64 2254.04ZM2073.83 2269.27L2067.68 2265.93L2067.68 2265.93L2073.83 2269.27ZM2061.4 2293.56V2392H2075.4V2293.56H2061.4ZM2068.4 2385H2043.26V2399H2068.4V2385ZM2050.26 2392V2228.36H2036.26V2392H2050.26ZM2043.26 2235.36H2067.55V2221.36H2043.26V2235.36ZM2060.55 2228.36V2253.93H2074.55V2228.36H2060.55ZM2067.55 2260.93H2069.68V2246.93H2067.55V2260.93ZM2076.04 2256.87C2079.31 2249.78 2084.23 2244.12 2090.95 2239.78L2083.36 2228.02C2074.45 2233.77 2067.73 2241.46 2063.32 2251L2076.04 2256.87ZM2090.99 2239.76C2097.34 2235.6 2105.98 2233.23 2117.41 2233.23V2219.23C2104.12 2219.23 2092.58 2221.98 2083.32 2228.05L2090.99 2239.76ZM2117.41 2233.23C2127.51 2233.23 2136.01 2235.3 2143.13 2239.19L2149.85 2226.91C2140.35 2221.71 2129.46 2219.23 2117.41 2219.23V2233.23ZM2143.17 2239.21C2150.11 2242.95 2155.6 2248.66 2159.63 2256.66L2172.13 2250.36C2166.93 2240.03 2159.49 2232.1 2149.81 2226.89L2143.17 2239.21ZM2159.64 2256.68C2163.61 2264.49 2165.8 2274.82 2165.8 2288.02H2179.8C2179.8 2273.38 2177.38 2260.7 2172.12 2250.34L2159.64 2256.68ZM2165.8 2288.02V2392H2179.8V2288.02H2165.8ZM2172.8 2385H2147.66V2399H2172.8V2385ZM2154.66 2392V2289.73H2140.66V2392H2154.66ZM2154.66 2289.73C2154.66 2275.67 2150.99 2263.75 2142.77 2254.92L2132.52 2264.45C2137.66 2269.97 2140.66 2278.07 2140.66 2289.73H2154.66ZM2142.8 2254.94C2134.55 2246 2123.38 2241.82 2110.16 2241.82V2255.82C2120.24 2255.82 2127.39 2258.89 2132.5 2264.43L2142.8 2254.94ZM2110.16 2241.82C2101.09 2241.82 2092.73 2243.8 2085.27 2247.91L2092.02 2260.17C2097.19 2257.32 2103.18 2255.82 2110.16 2255.82V2241.82ZM2085.24 2247.92C2077.75 2252.09 2071.9 2258.17 2067.68 2265.93L2079.99 2272.61C2083.02 2267.03 2087.03 2262.95 2092.05 2260.15L2085.24 2247.92ZM2067.68 2265.93C2063.38 2273.86 2061.4 2283.17 2061.4 2293.56H2075.4C2075.4 2284.92 2077.04 2278.03 2079.99 2272.61L2067.68 2265.93ZM2289.91 2228.36H2296.91V2221.36H2289.91V2228.36ZM2289.91 2249.67V2256.67H2296.91V2249.67H2289.91ZM2205.11 2249.67H2198.11V2256.67H2205.11V2249.67ZM2205.11 2228.36V2221.36H2198.11V2228.36H2205.11ZM2229.83 2189.16V2182.16H2222.83V2189.16H2229.83ZM2254.97 2189.16H2261.97V2182.16H2254.97V2189.16ZM2258.06 2361.11L2252 2364.62L2252.05 2364.69L2252.09 2364.76L2258.06 2361.11ZM2266.16 2368.14L2263.73 2374.7L2263.81 2374.73L2263.9 2374.76L2266.16 2368.14ZM2283.52 2369.41L2284.63 2376.33L2284.76 2376.31L2284.89 2376.28L2283.52 2369.41ZM2287.78 2368.56L2294.61 2367.02L2293.1 2360.36L2286.41 2361.7L2287.78 2368.56ZM2292.9 2391.15L2295.35 2397.7L2301.07 2395.56L2299.72 2389.6L2292.9 2391.15ZM2285.76 2393.07L2284.32 2386.21L2284.25 2386.23L2284.17 2386.25L2285.76 2393.07ZM2253.26 2389.55L2250.38 2395.93L2250.39 2395.93L2250.4 2395.94L2253.26 2389.55ZM2236.43 2375.59L2230.71 2379.63L2230.73 2379.65L2230.74 2379.67L2236.43 2375.59ZM2282.91 2228.36V2249.67H2296.91V2228.36H2282.91ZM2289.91 2242.67H2205.11V2256.67H2289.91V2242.67ZM2212.11 2249.67V2228.36H2198.11V2249.67H2212.11ZM2205.11 2235.36H2289.91V2221.36H2205.11V2235.36ZM2229.83 2196.16H2254.97V2182.16H2229.83V2196.16ZM2247.97 2189.16V2345.12H2261.97V2189.16H2247.97ZM2247.97 2345.12C2247.97 2352.67 2249.02 2359.48 2252 2364.62L2264.11 2357.59C2262.97 2355.63 2261.97 2351.78 2261.97 2345.12H2247.97ZM2252.09 2364.76C2254.89 2369.34 2258.74 2372.86 2263.73 2374.7L2268.58 2361.57C2267.03 2361 2265.49 2359.83 2264.03 2357.45L2252.09 2364.76ZM2263.9 2374.76C2268 2376.16 2272.28 2376.84 2276.7 2376.84V2362.84C2273.74 2362.84 2270.99 2362.39 2268.41 2361.51L2263.9 2374.76ZM2276.7 2376.84C2279.67 2376.84 2282.35 2376.69 2284.63 2376.33L2282.41 2362.5C2281.14 2362.71 2279.28 2362.84 2276.7 2362.84V2376.84ZM2284.89 2376.28C2286.67 2375.92 2288.09 2375.64 2289.15 2375.43L2286.41 2361.7C2285.34 2361.91 2283.92 2362.2 2282.15 2362.55L2284.89 2376.28ZM2280.95 2370.11L2286.07 2392.69L2299.72 2389.6L2294.61 2367.02L2280.95 2370.11ZM2290.44 2384.59C2289.22 2385.05 2287.24 2385.6 2284.32 2386.21L2287.19 2399.92C2290.39 2399.25 2293.16 2398.52 2295.35 2397.7L2290.44 2384.59ZM2284.17 2386.25C2281.83 2386.79 2278.53 2387.13 2274.15 2387.13V2401.13C2279.13 2401.13 2283.58 2400.76 2287.34 2399.88L2284.17 2386.25ZM2274.15 2387.13C2268.08 2387.13 2262.09 2385.83 2256.13 2383.16L2250.4 2395.94C2258.07 2399.37 2266.01 2401.13 2274.15 2401.13V2387.13ZM2256.15 2383.17C2250.57 2380.65 2245.91 2376.81 2242.12 2371.52L2230.74 2379.67C2235.9 2386.88 2242.47 2392.35 2250.38 2395.93L2256.15 2383.17ZM2242.15 2371.56C2238.77 2366.75 2236.83 2360.37 2236.83 2351.94H2222.83C2222.83 2362.55 2225.29 2371.93 2230.71 2379.63L2242.15 2371.56ZM2236.83 2351.94V2189.16H2222.83V2351.94H2236.83ZM2440.71 2265.01L2442.62 2271.75L2449.68 2269.75L2447.35 2262.79L2440.71 2265.01ZM2418.13 2271.4L2411.58 2273.87L2413.85 2279.89L2420.03 2278.14L2418.13 2271.4ZM2411.84 2260.43L2406.23 2264.61L2406.27 2264.67L2406.32 2264.74L2411.84 2260.43ZM2400.76 2251.48L2403.89 2245.22L2403.89 2245.22L2400.76 2251.48ZM2357.72 2254.89L2361.69 2260.66L2361.7 2260.65L2361.7 2260.65L2357.72 2254.89ZM2354.63 2287.06L2350.27 2292.54L2350.27 2292.54L2354.63 2287.06ZM2375.94 2296.12L2374.24 2302.91L2374.26 2302.91L2374.27 2302.92L2375.94 2296.12ZM2400.23 2302.09L2398.56 2308.88L2398.57 2308.89L2398.58 2308.89L2400.23 2302.09ZM2432.93 2318.38L2427.94 2323.29L2427.95 2323.3L2427.96 2323.31L2432.93 2318.38ZM2435.6 2371.55L2429.95 2367.42L2429.93 2367.43L2429.92 2367.45L2435.6 2371.55ZM2338.33 2384.54L2342.2 2378.71L2342.2 2378.71L2338.33 2384.54ZM2317.56 2352.8L2315.86 2346L2309.33 2347.64L2310.71 2354.23L2317.56 2352.8ZM2341.42 2346.83L2348.2 2345.08L2346.46 2338.35L2339.72 2340.04L2341.42 2346.83ZM2354.31 2366.64L2350.31 2372.39L2350.33 2372.4L2350.34 2372.41L2354.31 2366.64ZM2407.26 2365.79L2411.36 2371.47L2411.37 2371.46L2407.26 2365.79ZM2411.73 2333.41L2406.83 2338.4L2406.85 2338.42L2406.88 2338.45L2411.73 2333.41ZM2393.41 2324.67L2391.81 2331.49L2391.82 2331.49L2393.41 2324.67ZM2366.14 2318.28L2364.52 2325.09L2364.53 2325.09L2364.54 2325.09L2366.14 2318.28ZM2333.11 2301.77L2327.97 2306.52L2328 2306.54L2328.02 2306.57L2333.11 2301.77ZM2330.45 2249.03L2324.82 2244.87L2324.81 2244.89L2324.79 2244.9L2330.45 2249.03ZM2351.86 2232.31L2349.01 2225.91L2349.01 2225.91L2349 2225.92L2351.86 2232.31ZM2420.9 2236.89L2416.63 2242.43L2416.64 2242.44L2416.65 2242.45L2420.9 2236.89ZM2438.81 2258.28L2416.22 2264.67L2420.03 2278.14L2442.62 2271.75L2438.81 2258.28ZM2424.68 2268.93C2422.98 2264.43 2420.51 2260.17 2417.36 2256.13L2406.32 2264.74C2408.71 2267.8 2410.43 2270.84 2411.58 2273.87L2424.68 2268.93ZM2417.45 2256.25C2414 2251.62 2409.4 2247.98 2403.89 2245.22L2397.63 2257.74C2401.5 2259.68 2404.28 2262 2406.23 2264.61L2417.45 2256.25ZM2403.89 2245.22C2397.93 2242.24 2390.75 2240.97 2382.76 2240.97V2254.97C2389.39 2254.97 2394.22 2256.04 2397.63 2257.74L2403.89 2245.22ZM2382.76 2240.97C2371.66 2240.97 2361.84 2243.54 2353.74 2249.13L2361.7 2260.65C2366.96 2257.01 2373.83 2254.97 2382.76 2254.97V2240.97ZM2353.75 2249.12C2345.56 2254.76 2340.81 2262.57 2340.81 2272.26H2354.81C2354.81 2267.88 2356.67 2264.11 2361.69 2260.66L2353.75 2249.12ZM2340.81 2272.26C2340.81 2280.45 2343.92 2287.48 2350.27 2292.54L2358.99 2281.59C2356.25 2279.41 2354.81 2276.56 2354.81 2272.26H2340.81ZM2350.27 2292.54C2355.97 2297.08 2364.21 2300.4 2374.24 2302.91L2377.64 2289.33C2368.35 2287.01 2362.39 2284.29 2358.99 2281.59L2350.27 2292.54ZM2374.27 2302.92L2398.56 2308.88L2401.9 2295.29L2377.61 2289.32L2374.27 2302.92ZM2398.58 2308.89C2412.5 2312.27 2422.01 2317.25 2427.94 2323.29L2437.93 2313.48C2429.51 2304.89 2417.22 2299.01 2401.88 2295.28L2398.58 2308.89ZM2427.96 2323.31C2433.67 2329.08 2436.69 2336.57 2436.69 2346.4H2450.69C2450.69 2333.37 2446.54 2322.18 2437.91 2313.46L2427.96 2323.31ZM2436.69 2346.4C2436.69 2354.33 2434.44 2361.26 2429.95 2367.42L2441.25 2375.68C2447.55 2367.06 2450.69 2357.22 2450.69 2346.4H2436.69ZM2429.92 2367.45C2425.42 2373.69 2419.01 2378.78 2410.38 2382.62L2416.07 2395.41C2426.61 2390.73 2435.12 2384.18 2441.28 2375.64L2429.92 2367.45ZM2410.38 2382.62C2401.86 2386.41 2391.71 2388.41 2379.77 2388.41V2402.41C2393.26 2402.41 2405.42 2400.15 2416.07 2395.41L2410.38 2382.62ZM2379.77 2388.41C2364.09 2388.41 2351.71 2385.01 2342.2 2378.71L2334.47 2390.38C2346.83 2398.56 2362.08 2402.41 2379.77 2402.41V2388.41ZM2342.2 2378.71C2332.93 2372.57 2326.98 2363.65 2324.41 2351.36L2310.71 2354.23C2313.96 2369.79 2321.86 2382.03 2334.47 2390.38L2342.2 2378.71ZM2319.26 2359.59L2343.12 2353.62L2339.72 2340.04L2315.86 2346L2319.26 2359.59ZM2334.64 2348.58C2337.26 2358.7 2342.38 2366.86 2350.31 2372.39L2358.31 2360.9C2353.61 2357.62 2350.13 2352.57 2348.2 2345.08L2334.64 2348.58ZM2350.34 2372.41C2358.23 2377.84 2368.09 2380.25 2379.35 2380.25V2366.25C2370.01 2366.25 2363.18 2364.25 2358.28 2360.88L2350.34 2372.41ZM2379.35 2380.25C2391.99 2380.25 2402.9 2377.57 2411.36 2371.47L2403.16 2360.12C2397.84 2363.96 2390.14 2366.25 2379.35 2366.25V2380.25ZM2411.37 2371.46C2419.69 2365.43 2424.7 2357.46 2424.7 2347.68H2410.7C2410.7 2351.96 2408.75 2356.07 2403.15 2360.12L2411.37 2371.46ZM2424.7 2347.68C2424.7 2340.16 2421.98 2333.56 2416.59 2328.37L2406.88 2338.45C2409.44 2340.92 2410.7 2343.84 2410.7 2347.68H2424.7ZM2416.64 2328.41C2411.39 2323.25 2403.89 2319.92 2395 2317.85L2391.82 2331.49C2399.41 2333.25 2404.13 2335.75 2406.83 2338.4L2416.64 2328.41ZM2395.01 2317.86L2367.73 2311.46L2364.54 2325.09L2391.81 2331.49L2395.01 2317.86ZM2367.75 2311.47C2353.47 2308.08 2343.94 2303.04 2338.21 2296.96L2328.02 2306.57C2336.35 2315.4 2348.83 2321.37 2364.52 2325.09L2367.75 2311.47ZM2338.25 2297.01C2332.61 2290.91 2329.67 2283.26 2329.67 2273.53H2315.67C2315.67 2286.39 2319.69 2297.56 2327.97 2306.52L2338.25 2297.01ZM2329.67 2273.53C2329.67 2265.71 2331.84 2259 2336.1 2253.16L2324.79 2244.9C2318.69 2253.27 2315.67 2262.9 2315.67 2273.53H2329.67ZM2336.08 2253.2C2340.53 2247.17 2346.67 2242.31 2354.73 2238.69L2349 2225.92C2339.01 2230.4 2330.87 2236.69 2324.82 2244.87L2336.08 2253.2ZM2354.71 2238.7C2362.77 2235.11 2372.08 2233.23 2382.76 2233.23V2219.23C2370.42 2219.23 2359.13 2221.41 2349.01 2225.91L2354.71 2238.7ZM2382.76 2233.23C2398 2233.23 2409.02 2236.58 2416.63 2242.43L2425.16 2231.34C2414.31 2222.99 2399.9 2219.23 2382.76 2219.23V2233.23ZM2416.65 2242.45C2424.78 2248.66 2430.59 2256.85 2434.07 2267.24L2447.35 2262.79C2443.02 2249.88 2435.62 2239.32 2425.14 2231.32L2416.65 2242.45Z" fill="black" mask="url(#path-11-outside-1_203_38)"/>
<line x1="183.004" y1="897.997" x2="1180" y2="151.997" stroke="#CB3DBD" stroke-width="10"/>
<line x1="140" y1="1544" x2="140" y2="1145" stroke="#CB3DBD" stroke-width="10"/>
<line x1="2461" y1="1544" x2="2461" y2="1145" stroke="#CB3DBD" stroke-width="10"/>
<line x1="2425.28" y1="837.192" x2="1471.28" y2="217.192" stroke="#CB3DBD" stroke-width="10"/>
</svg>
