<svg width="1854" height="839" viewBox="0 0 1854 839" fill="none" xmlns="http://www.w3.org/2000/svg">
<path d="M751.044 0.0257094C749.844 0.171015 748.656 0.449678 747.494 0.858581C742.913 2.34711 742.363 3.623 743.367 10.4454C744.041 14.7693 743.683 18.3488 742.651 18.3488C741.62 18.3488 740.547 21.0424 740.134 24.2852C739.597 29.1052 737.657 30.7001 730.173 32.3658C723.817 33.9451 717.533 35.9802 711.353 38.4617C706.889 40.3952 702.277 41.7023 697.595 42.3603C692.175 42.3603 690.937 47.1094 690.937 67.8425V84.9961H684.856C681.513 84.9961 678.156 86.2365 677.427 87.7605C675.473 91.8185 676.422 244.641 678.458 255.557C679.71 262.22 680.247 263.124 680.398 258.711C680.508 255.344 681.526 253.395 682.654 254.228C683.783 255.061 684.732 254.458 684.732 252.722C684.732 250.507 685.75 250.648 688.226 253.218C690.703 255.787 691.212 255.823 690.152 253.555C689.299 251.783 689.602 250.223 690.799 250.223C691.996 250.223 693 252.58 693 255.539C693 258.8 691.982 260.218 690.249 259.367C688.515 258.516 686.396 261.139 684.883 265.445C683.081 270.549 682.943 273.03 684.498 273.703C687.869 275.138 687.181 279.604 683.59 279.604C678.857 279.604 675.143 291.707 678.348 296.687C679.724 298.866 680.274 302.003 679.518 303.598C678.761 305.192 679.353 308.4 680.893 310.686C682.123 312.388 683.06 314.405 683.645 316.605C683.645 317.473 684.333 317.88 685.186 317.508C687.525 316.516 687.084 321.584 684.677 323.516C683.301 324.561 683.838 327.999 686.053 332.925C688.708 338.702 690.826 340.403 694.307 339.588C696.894 338.968 699.618 339.819 700.374 341.36C701.131 342.902 700.842 343.434 699.081 342.034C697.086 340.439 696.687 341.077 697.705 344.355C698.545 347.173 697.334 351 694.541 354.598C691.748 358.195 689.836 359.205 689.368 357.433C688.9 355.661 687.112 355.2 685.241 356.104C683.04 357.185 682.489 356.671 683.425 354.615C684.278 352.843 683.741 351.461 682.2 351.443C680.233 351.443 680.329 350.734 682.586 348.856C684.292 347.438 684.636 346.216 683.37 346.198C682.104 346.18 677.66 349.193 673.478 352.861C668.531 357.371 662.588 359.708 656.529 359.524C649.402 359.524 646.073 361.012 642.179 366.01C636.676 373.098 635.851 376.89 639.139 379.513C639.748 380.042 640.252 380.747 640.613 381.572C640.973 382.396 641.18 383.317 641.216 384.262C641.216 386.158 640.35 385.91 639.139 383.5C637.681 380.576 637.062 382.702 636.883 391.492C636.798 397.652 636.255 403.788 635.259 409.815C634.007 415.574 633.663 415.751 631.132 411.817C629.426 409.177 625.189 407.494 620.332 407.494C614.169 407.494 611.624 408.911 609.079 413.908C605.116 421.688 596.091 426.136 584.122 426.136C572.813 426.136 572.538 424.966 572.868 380.062C573.02 360.676 572.552 325.252 571.837 301.365C570.571 258.658 570.461 257.878 565.563 254.972C561.876 252.81 557.666 252.864 549.659 255.132C541.652 257.4 536.645 257.453 530.921 255.398C525.198 253.342 522.24 253.342 520.245 255.398C518.251 257.453 517.246 257.453 516.558 254.901C515.87 252.35 513.532 253.36 508.097 258.321L500.531 265.232L499.815 334.343C499.403 372.336 498.44 405.846 497.614 408.769C496.513 412.898 486.911 421.883 485.782 419.845C485.659 419.614 484.93 389.454 484.104 352.808C483.279 316.162 481.889 284.158 481.064 281.766C479.289 276.627 463.935 272.799 460.427 276.609C459.051 278.045 451.072 279.586 442.542 280.029L427.092 280.862L425.937 326.156C424.836 369.447 422.841 383.447 417.682 383.447C416.582 383.447 415.674 381.214 415.674 378.449C415.674 371.556 412.083 368.473 401.448 366.382C392.148 364.61 384.636 369.164 384.636 376.784C384.636 378.556 382.779 383.057 380.509 386.778C378.202 390.574 376.707 395.084 376.175 399.856C376.079 403.294 374.8 399.75 373.424 392.024C370.672 377.298 365.733 368.154 358.813 364.805C347.945 359.488 345.372 359.081 345.358 362.554C345.358 364.911 341.836 366.346 334.696 366.789C323.002 367.534 318.462 370.776 318.462 378.449C318.462 386.123 314.073 393.459 310.056 392.112C306.796 391.013 306.341 385.254 305.406 333.227C304.292 271.382 302.311 218.911 300.88 213.559C300.316 211.486 297.839 210.848 294.097 211.787C283.27 214.569 264.67 204.965 264.67 196.618C264.67 195.271 266.045 194.208 267.779 194.208C272.566 194.208 271.466 186.996 266.403 185.348C262.675 184.108 262.372 183.204 264.532 179.855C267.971 174.538 265.743 170.392 260.405 172.199C257.158 173.298 256.277 175.123 257.24 179.695C258.011 183.647 257.392 186.181 255.369 187.191C251.779 188.963 251.146 196.937 254.585 196.937C256.291 196.937 256.277 197.876 254.585 200.481C253.32 202.448 252.783 204.646 253.43 205.479C254.076 206.311 253.43 207.871 252.054 209.023C250.32 210.405 250.045 209.944 251.215 207.516C252.384 205.089 251.93 204.522 248.945 206.028C243.602 208.029 238.16 209.556 232.656 210.6C225.859 212.035 219.806 213.825 219.214 214.605C218.623 215.384 217.646 256.691 217.068 306.451C215.995 400.476 215.83 401.912 207.438 402.053C204.948 402.053 202.086 395.426 201.756 388.816C201.632 386.353 198.44 384.226 193.35 383.146C188.837 382.206 184.793 379.832 184.297 377.829C182.633 371.397 173.897 362.093 169.549 362.093C167.197 362.093 162.395 366.205 158.956 371.255C155.516 376.305 151.114 381.125 149.188 381.887C145.061 383.535 140.369 395.816 137.425 412.19C136.283 418.516 134.467 423.743 133.298 423.85C131.207 424.045 125.786 413.891 121.659 402.036C116.321 386.69 113.624 382.047 110.089 382.047C107.337 382.047 106.25 384.226 105.961 390.535C105.718 395.468 104.587 400.26 102.66 404.534C99.7292 409.85 99.6879 409.85 97.3629 403.276C95.9871 399.626 94.1573 396.702 93.153 396.702C92.1487 396.702 88.8056 393.441 85.7239 389.454L80.2759 382.242L76.3274 388.834C74.1675 392.378 72.4065 397.499 72.379 400.069C72.3797 400.724 72.2736 401.372 72.0674 401.971C71.8613 402.57 71.5597 403.107 71.1823 403.546C70.8048 403.986 70.36 404.318 69.8764 404.522C69.3929 404.726 68.8816 404.796 68.3755 404.729C61.3453 404.729 57.8371 401.575 57.8371 395.32C57.8371 389.064 49.7339 383.411 41.0941 383.411C36.1276 383.411 34.2153 378.733 37.1456 374.09C40.076 369.447 37.7647 363.865 33.1422 365.425C30.2806 366.4 29.1112 363.653 27.1301 351.355C24.3785 333.882 20.3338 327.538 15.4223 332.784C13.8072 334.423 12.7155 336.768 12.3544 339.376C12.3544 342.246 10.4145 345.861 2.06365 358.62C-0.687882 362.767 -0.687882 396.755 2.06365 396.755C3.19177 396.755 5.22791 394.363 6.64494 391.439C8.06198 388.515 10.4558 386.123 11.8866 386.123C15.1884 386.123 15.271 380.151 12.0242 375.951C10.0844 373.47 10.3182 372.797 13.056 372.797C17.3897 372.797 17.6923 365.159 13.4412 363.05C12.5915 362.622 11.8509 361.898 11.3019 360.96C10.7529 360.021 10.4171 358.904 10.332 357.734C10.3677 356.717 10.7151 355.76 11.2979 355.072C11.8808 354.385 12.6515 354.023 13.4412 354.066C15.4223 354.066 16.5642 351.426 16.6055 346.73L16.6743 339.411L19.6459 346.074C21.3153 349.893 22.3506 354.117 22.6864 358.478C22.7964 367.144 24.8876 372.655 28.1206 372.655C29.7028 372.655 31.0235 373.842 31.0235 375.313C31.0235 376.784 29.6477 377.971 28.1206 377.971C25.3691 377.971 22.7551 383.287 22.7551 388.887C22.7551 390.287 24.8463 391.191 27.4052 390.801C31.9131 390.605 36.4234 391.08 40.8464 392.218C47.5464 393.866 49.6513 395.585 49.6513 399.466C49.6513 402.266 48.2756 404.623 46.5421 404.623C45.7534 404.584 44.9847 404.948 44.4026 405.634C43.8206 406.321 43.4721 407.276 43.4329 408.291C43.4329 412.473 49.6651 415.149 59.4055 415.202L66.0092 415.291L66.6558 437.264C67.2199 458.192 67.495 459.238 72.1589 460.088L77.0703 461.01L75.9697 438.097C75.3506 425.445 75.7221 415.291 76.7401 415.291C77.7582 415.291 78.5562 412.261 78.5562 408.539C78.5562 390.5 93.8822 403.684 96.4411 423.956C97.8169 435.085 98.1471 435.315 106.003 430.601C109.786 428.351 111.657 425.143 111.753 420.625C111.836 416.956 111.987 410.099 112.084 405.385C112.317 394.079 114.615 396.33 118.027 411.215C119.54 417.825 121.535 423.283 122.429 423.283C123.324 423.283 124.039 425.71 124.039 428.599C124.006 429.999 124.273 431.384 124.809 432.602C125.345 433.821 126.13 434.826 127.079 435.51C128.758 436.343 130.753 441.11 131.482 446.142C132.238 451.458 134.041 455.233 135.747 455.233C139.668 455.233 141.869 447.206 138.65 444.601C136.792 443.112 137.04 442.12 139.626 440.844C142.213 439.568 142.832 437.016 142.144 432.444C141.607 428.794 141.938 425.852 142.928 425.852C143.919 425.852 144.73 420.678 144.73 414.369C144.73 400.848 148.638 388.621 152.985 388.462C157.03 388.338 163.331 382.1 163.331 378.219C163.285 377.492 163.462 376.771 163.825 376.211C164.188 375.65 164.707 375.296 165.271 375.224C166.316 375.224 167.486 373.275 167.857 370.9C168.394 367.356 169.591 367.959 174.186 373.895C177.322 377.936 179.881 383.659 179.881 386.548C179.881 391.049 180.858 391.51 186.595 390.092C192.332 388.674 193.653 389.436 195.909 395.674C197.374 399.854 198.25 404.336 198.495 408.911C198.495 415.362 205.773 425.817 210.258 425.817C211.771 425.817 213.01 422.875 213.01 419.154C213.261 414.785 214.647 410.653 216.944 407.423C220.796 402.461 220.893 402.514 222.117 410.418C222.986 418.223 223.4 426.101 223.355 433.986C223.355 446.993 224.085 450.165 227.937 453.638C233.866 458.954 239.906 458.954 239.906 453.638C239.906 449.102 244.666 441.907 247.665 441.907C248.683 441.907 249.041 445.628 248.559 450.236C247.651 458.281 247.872 458.529 253.608 456.722C256.897 455.694 262.111 454.205 265.247 453.39C272.979 451.388 272.47 444.813 264.408 442.758L257.873 440.986L262.4 436.325C266.94 431.594 266.926 431.47 267.05 323.48L267.187 215.384L281.99 217.05C290.135 217.989 296.904 218.822 297.055 219.053C297.922 219.992 299.807 309.587 299.807 352.205V402.514L305.035 401.256C307.91 400.547 310.771 400.99 311.377 402.266C313.22 406.094 318.421 404.871 318.421 400.6C318.421 398.403 319.122 396.525 319.975 396.507C321.888 396.507 326.703 383.571 326.703 378.449C326.703 375.561 328.478 375.047 334.27 376.447C338.397 377.457 342.359 377.174 343.061 375.774C343.762 374.374 347.064 372.495 350.49 371.539C355.993 369.997 357.149 370.794 360.313 378.52C362.868 385.58 364.802 392.986 366.077 400.6C368.719 416.549 372.667 423.991 377.771 422.751C380.426 422.095 381.72 419.047 382.105 412.509C383.054 396.755 384.568 391.244 387.993 391.244C390.47 391.244 390.965 389.596 389.988 384.581C388.929 379.123 389.41 377.918 392.836 377.918C395.133 377.918 397.046 379.123 397.046 380.594C397.046 384.847 402.631 383.677 406.607 378.591C410.088 374.143 410.17 374.108 408.808 378.751C406.745 385.839 409.373 397.145 412.688 395.497C414.435 394.628 415.041 395.497 414.298 397.995C413.555 400.494 414.38 401.912 416.238 401.912C417.175 401.996 418.077 402.413 418.842 403.117C419.606 403.821 420.205 404.784 420.571 405.899C422.511 412.402 427.863 410.453 429.362 402.745C430.091 397.856 429.825 392.807 428.592 388.09C426.817 382.047 426.955 380.594 429.307 380.594C431.151 380.594 432.21 377.705 432.21 372.85C432.21 366.205 433.16 365.035 438.938 363.99C442.625 363.298 447.055 363.99 448.829 365.319C452.255 368.083 457.084 384.811 457.084 394.044C457.084 400.14 461.555 407.299 465.421 407.299C467.058 407.299 467.499 404.41 466.646 398.545C465.944 393.76 465.201 371.273 465.036 348.59C464.857 324.03 463.812 305.263 462.45 302.286C460.73 298.494 460.826 296.97 462.766 296.12C464.142 295.446 465.352 292.115 465.352 288.712C465.352 283.237 466.027 282.74 471.048 284.459L476.73 286.373L477.776 359.488L478.807 432.604L485.975 432.108C489.937 431.859 493.528 430.336 493.927 428.776C494.326 427.217 496.912 425.941 499.623 425.941C504.025 425.941 504.493 427.022 504.08 435.935C503.667 444.849 504.149 446 509.322 446.762C513.449 447.365 515.004 446.408 515.004 443.431C515.019 442.351 514.702 441.308 514.122 440.528C513.542 439.748 512.746 439.295 511.908 439.267C510.202 439.267 508.799 438.079 508.799 436.609C508.799 435.138 515.953 433.933 526.065 433.933C535.544 433.933 543.95 433.082 544.748 432.019C545.546 430.956 548.325 430.07 550.829 430.034C555.3 430.034 555.382 429.308 555.548 388.639C555.795 326.51 554.364 300.036 550.829 301.808C549.233 302.605 548.366 302.198 548.958 300.975C549.549 299.752 548.201 296.137 545.917 292.983C541.432 286.781 531.664 285.239 531.362 290.644C531.265 292.416 530.302 290.095 529.229 285.328C527.853 279.019 526.051 276.574 522.708 276.467C520.177 276.343 519.282 275.617 520.699 274.89C524.331 272.994 523.932 266.03 520.177 266.03C519.792 265.999 519.407 266.066 519.043 266.227C518.679 266.389 518.343 266.642 518.056 266.971C517.768 267.301 517.534 267.7 517.366 268.147C517.199 268.594 517.102 269.079 517.081 269.574C517.081 271.541 514.646 274.642 511.578 276.397C505.635 279.941 501.824 277.903 506.735 273.898C509.404 271.718 509.404 271.435 506.735 271.399C504.713 271.399 505.263 269.946 508.345 267.164C512.706 263.212 521.126 262.468 541.363 264.152C548.627 264.772 548.655 264.825 546.013 272.728C545.037 275.67 544.156 276.574 544.074 274.731C543.867 269.911 537.745 270.566 537.745 275.404C537.745 277.637 540.029 280.72 542.78 281.978C544.182 282.669 545.433 283.788 546.425 285.239C547.417 286.69 548.121 288.429 548.476 290.307C548.848 293.568 550.278 296.775 551.709 297.395C553.608 298.211 554.296 293.497 554.296 279.675C554.296 261.617 554.488 260.855 559.138 260.855C563.788 260.855 564.05 261.423 565.412 294.826C566.168 313.521 567.283 347.988 567.874 371.45C568.466 394.912 569.388 418.87 569.938 424.736L570.97 435.368L585.126 435.191C594.674 435.085 601.003 433.578 604.525 430.619C608.803 427.075 610.028 426.88 610.867 429.875C612.779 436.307 629.55 449.173 638.382 450.927C644.43 452.435 650.328 454.813 655.965 458.015L665.017 463.331H657.258C651.755 463.331 649.498 464.572 649.498 467.407C649.498 470.614 652.25 471.306 663.462 470.951C677.014 470.561 677.151 470.508 668.126 468.541L658.812 466.468L668.635 466.964C674.042 467.212 678.472 466.485 678.472 465.369C678.472 464.253 677.537 463.384 676.395 463.384C675.253 463.384 674.331 445.664 674.331 415.415V367.445H665.843C655.222 367.445 656.02 365.956 667.714 364.025C674.414 362.926 676.505 363.511 676.505 366.364C676.505 370.812 682.008 371.432 683.163 367.108C683.741 364.911 687.869 365 698.82 367.534L713.747 370.936L714.008 416.496C714.132 441.535 714.008 464.005 713.87 466.379C713.733 468.754 715.494 471.341 717.819 472.121C722.689 473.769 723.542 479.368 718.92 479.368C718.095 479.368 717.304 479.79 716.721 480.541C716.138 481.292 715.81 482.311 715.81 483.373C715.81 487.874 723.363 488.689 728.192 484.702C730.944 482.487 731.288 457.235 731.288 283.591V84.9606H736.007C740.698 84.9606 740.808 84.3404 740.134 64.068C739.46 43.7957 739.583 43.2817 744.137 44.4158C748.43 45.4791 748.801 44.5399 748.994 32.5962C749.05 26.0138 749.612 19.4547 750.672 13.015C751.897 7.43296 752.736 9.32903 755.776 24.8346C758.005 36.1758 760.949 44.788 763.412 47.0031C766.727 49.9801 767.415 53.8432 767.415 69.2247C767.415 86.9453 767.649 87.7959 772.065 87.2998C783.718 86.0061 782.906 76.1358 783.071 224.209C783.154 365.265 784.131 391.421 789.331 391.421C790.968 391.421 792.317 389.029 792.317 386.105C792.317 383.181 793.238 380.275 794.38 379.371C795.522 378.467 796.444 380.665 796.444 384.528C796.444 393.601 801.231 393.282 804.079 384.032L806.336 376.695L806.597 384.032C806.886 393.512 814.852 394.664 815.333 385.361L815.65 379.371L816.558 385.361C817.713 393.122 825.417 393.707 825.417 386.034C825.417 383.092 826.339 380.718 827.481 380.718C828.623 380.718 829.545 383.713 829.545 387.381C829.545 391.527 830.728 394.044 832.654 394.044C834.36 394.044 835.763 391.634 835.763 388.727C835.763 385.821 836.685 382.88 837.827 381.976C838.969 381.072 839.891 383.27 839.891 387.133C839.891 391.421 841.046 393.973 843 393.973C844.706 393.973 846.109 391.563 846.109 388.657C846.109 385.75 847.031 382.809 848.173 381.905C849.315 381.001 850.236 383.199 850.236 387.062C850.236 394.983 855.822 396.542 857.996 389.241C859.165 385.325 859.564 385.697 860.582 391.226C862.027 399.129 869.428 401.504 874.037 395.568C878.164 390.251 878.164 375.242 874.037 375.242C872.097 375.242 870.928 377.758 870.928 381.905C870.928 385.573 869.992 388.568 868.864 388.568C867.736 388.568 866.787 383.766 866.787 377.936C866.787 371.22 865.837 367.303 864.2 367.197C862.563 367.091 862.467 366.47 864.53 364.787C866.897 362.855 867.172 353.907 866.278 315.169C865.604 286.214 864.324 267.324 862.976 266.207C861.628 265.091 861.476 263.053 862.714 260.537C863.774 258.375 864.709 249.727 864.723 241.292C864.723 229.472 865.425 225.981 867.832 225.981C869.896 225.981 870.928 223.306 870.928 217.989C870.928 212.673 869.896 209.98 867.832 209.98C865.769 209.98 864.723 212.655 864.723 217.989C864.723 222.384 863.788 225.981 862.659 225.981C861.531 225.981 860.582 216.643 860.582 203.317C860.582 182.442 860.266 180.67 856.455 180.67C854.185 180.67 852.327 181.875 852.327 183.346C852.327 184.816 849.989 186.004 847.155 186.004C844.32 186.004 841.982 184.462 841.982 182.46C841.982 177.905 849.122 169.435 850.965 171.827C851.722 172.819 852.341 172.217 852.341 170.498C852.319 169.717 852.535 168.956 852.945 168.379C853.354 167.802 853.923 167.456 854.529 167.415C855.739 167.415 856.138 168.62 855.437 170.09C854.735 171.561 855.299 172.749 856.675 172.749C858.051 172.749 862.288 176.86 866.113 181.91C872.042 189.778 872.991 193.003 872.991 204.061C872.991 219.513 876.802 231.262 881.796 231.298C885.167 231.298 885.415 237.074 885.415 313.663C885.415 377.563 885.992 396.542 888.056 398.722C889.528 400.299 895.114 403.134 900.438 404.977C908.995 407.919 910.192 409.159 910.192 415.468C910.192 421.05 911.568 423.3 916.397 425.462C928.049 430.779 922.656 431.859 895.843 429.963C881.108 428.9 867.832 429.024 866.36 430.211C862.453 433.348 858.257 433.756 859.633 430.867C859.79 430.543 859.995 430.263 860.237 430.042C860.479 429.821 860.752 429.664 861.041 429.58C861.33 429.496 861.629 429.486 861.921 429.552C862.213 429.618 862.492 429.758 862.742 429.963C863.801 430.796 864.682 430.176 864.682 428.617C864.682 423.69 856.427 425.551 856.152 430.53C855.918 434.978 855.891 434.978 854.983 430.53C853.827 424.86 846.068 424.275 846.068 429.875C846.064 430.934 845.735 431.948 845.152 432.695C844.569 433.442 843.781 433.862 842.958 433.862C841.253 433.862 839.849 432.497 839.849 430.867C839.849 429.237 838.556 428.581 836.946 429.379C836.557 429.581 836.14 429.681 835.719 429.672C835.299 429.664 834.885 429.547 834.5 429.329C834.116 429.111 833.769 428.796 833.48 428.403C833.191 428.01 832.967 427.546 832.819 427.04C831.443 422.273 825.321 421.918 825.321 426.632C825.321 429.006 822.914 429.839 817.562 429.201C805.73 427.801 800.489 425.976 800.489 423.371C800.489 422.078 802.346 421.599 804.616 422.379C807.794 423.442 808.743 422.379 808.743 418.126C808.743 414.068 807.367 412.491 804.079 412.473C800.897 412.348 797.733 411.79 794.642 410.807C790.927 409.514 789.593 410.382 788.698 414.795C788.065 417.931 786.731 420.554 785.727 420.554C784.722 420.554 783.911 440.879 783.911 465.759V510.982L790.115 515.146C794.82 518.283 796.32 521.1 796.32 526.895V534.55L811.068 534.799L825.871 535.135L824.496 522.731C823.791 516.102 823.359 509.43 823.202 502.742C823.202 496.894 822.239 495.157 819.075 495.157C816.764 495.157 814.948 493.385 814.948 491.17C814.948 485.588 809.225 486.138 808.069 491.826C807.533 494.396 807.244 483.976 807.422 468.789L807.739 441.127H817.053L886.887 441.464L947.42 441.801V452.433C947.42 461.506 948.053 463.065 951.754 463.065C955.812 463.065 956.101 461.825 955.565 445.079C955.248 435.173 955.18 417.612 955.372 406.094L955.702 385.201L980.329 386.105C993.894 386.636 1005.48 387.682 1006.07 388.444C1006.66 389.206 1007.79 406.165 1008.59 425.994C1009.88 458.121 1009.66 462.321 1006.65 463.81C1004.61 464.82 1003.29 468.577 1003.29 473.131C1003.29 479.333 1004.67 481.389 1010.53 484.383C1016.39 487.378 1017.76 489.451 1017.76 495.122C1017.93 501.644 1018.36 508.151 1019.06 514.615C1020.43 527.019 1020.43 527.019 1028.56 527.019C1033.05 527.019 1038.11 528.791 1039.82 531.006C1042.57 534.55 1041.41 534.958 1029.79 534.923C1022.59 534.923 1015.33 533.771 1013.62 532.353C1010.98 530.138 1011.05 529.713 1014.14 529.677C1015.03 529.756 1015.91 529.382 1016.59 528.636C1017.26 527.891 1017.69 526.833 1017.76 525.69C1017.76 522.536 1014.89 521.685 1004.32 521.685C991.747 521.685 990.867 522.075 990.867 527.675C990.867 532.707 992.889 534.426 1003.25 538.307C1019.13 544.314 1048.83 544.811 1048.83 539.051C1048.83 535.933 1050.34 536.269 1056.2 540.717C1060.72 544.735 1066.27 546.366 1071.69 545.271L1079.84 543.854L1079.51 556.258C1079.31 564.108 1078.89 565.987 1078.35 561.344C1077.31 552.484 1072.63 551.704 1070.45 560.015C1068.94 565.792 1068.85 565.756 1068.01 558.686C1066.99 550.269 1062.86 549.329 1047.63 554.273C1038.28 557.304 1037.37 559.218 1040.52 568.68C1042.31 573.997 1042.31 573.997 1042.6 568.68C1042.88 563.364 1042.88 563.364 1044.66 568.68C1046.04 572.792 1046.49 572.951 1046.6 569.584C1046.8 568.194 1047.3 566.909 1048.06 565.889C1048.82 564.868 1049.79 564.156 1050.86 563.843C1054.17 562.744 1054.99 563.843 1054.99 568.928C1054.99 575.857 1058.75 577.222 1065.34 572.668C1068.47 570.506 1070 571.462 1073.48 577.753C1078.21 586.312 1078.98 592.958 1075.42 594.499C1074.14 595.031 1082.07 595.793 1093 596.165L1112.92 596.821V300.886H1133.6C1144.91 300.886 1156.4 301.967 1159.14 303.314L1164.12 305.724L1164.57 403.737C1164.82 457.661 1165.51 502.76 1166.06 503.929C1166.61 505.099 1171.68 506.091 1177.31 506.091C1182.94 506.091 1187.52 507.278 1187.52 508.749C1187.52 510.22 1190.09 511.46 1193.21 511.496C1199.31 511.585 1206.97 517.45 1204.73 520.356C1203.99 521.313 1205.43 522.128 1207.89 522.128C1212.13 522.128 1212.35 523.333 1212.35 544.775C1212.35 565.65 1212.68 567.44 1216.48 567.44C1220.28 567.44 1220.61 565.668 1220.61 548.78V530.085L1231.01 535.401C1242.76 541.355 1249.19 541.922 1260.42 537.9L1268.18 535.153V485.854C1268.18 443.927 1268.65 436.733 1271.29 436.733C1273.01 436.733 1274.4 434.358 1274.4 431.416C1274.4 428.475 1273.02 426.1 1271.29 426.1C1268.73 426.1 1268.18 421.369 1268.18 399.519C1268.18 374.055 1268.41 372.938 1272.65 372.938H1277.04L1276.27 452.22L1275.43 531.485L1282.14 530.74C1286.56 530.297 1288.87 531.29 1288.87 533.576C1288.87 535.862 1286.64 536.748 1281.63 535.986C1276.01 535.135 1274.4 535.826 1274.4 539.158C1274.4 542.489 1276.35 543.482 1281.63 543.482H1288.87V596.661H1296.25C1300.15 596.693 1304.01 595.729 1307.62 593.826C1310.37 591.93 1311.63 591.93 1311.63 593.826C1311.63 595.35 1313 596.661 1314.67 596.661C1317.27 596.661 1317.65 587.996 1317.42 538.024L1317.16 479.404L1311.79 479.067C1308.34 478.872 1307.77 478.358 1310.11 477.579C1313.41 476.462 1313.75 469.285 1314.24 387.965C1314.78 301.985 1314.87 299.504 1318.9 298.53C1321.09 298.055 1323.1 296.644 1324.59 294.525C1325.67 292.363 1326.11 292.469 1326.14 294.861C1326.17 297.254 1329.35 298.193 1335.26 298.193C1351.98 298.193 1350.95 293.444 1351.22 368.402C1351.37 405.243 1352.06 443.821 1352.78 454.081L1354.07 472.741L1363.91 476.746L1373.73 480.733V498.454C1373.67 507.148 1374.1 515.837 1375.02 524.45C1376.3 532.725 1376.4 532.778 1389.44 532.778C1404.12 532.778 1412.22 536.322 1413.68 543.588C1414.24 546.37 1417.67 549.436 1421.63 550.676C1426.43 552.271 1428.75 554.716 1429.2 558.668C1429.86 564.427 1431.36 565.491 1443.55 568.663C1447.99 569.814 1450.28 569.336 1450.28 567.334C1450.28 565.562 1449.11 565.065 1447.69 565.987C1446.27 566.908 1446.75 565.987 1448.72 563.914C1450.69 561.84 1451.75 559.466 1451.12 558.597C1450.48 557.729 1450.94 556.347 1452.09 555.425C1453.25 554.504 1453.85 555.992 1453.39 559.182C1452.92 562.372 1453.69 564.498 1455.57 564.498C1457.22 564.498 1458.56 565.703 1458.56 567.174C1458.56 568.645 1460.07 569.832 1461.91 569.832C1464.14 569.832 1464.9 568.166 1464.24 564.924C1463.44 560.99 1464.24 560.281 1468.12 561.255C1471.63 562.124 1473.03 564.179 1473.03 568.751C1473.03 572.295 1474.3 575.166 1475.88 575.166C1477.46 575.166 1483.02 575.893 1488.26 576.832L1497.89 578.498V568.84C1497.89 562 1498.8 559.164 1500.99 559.164C1501.81 559.164 1502.6 558.745 1503.18 557.998C1503.76 557.25 1504.09 556.236 1504.1 555.177C1504.1 552.661 1502.11 551.172 1498.8 551.172C1495.48 551.172 1494.03 550.038 1494.92 548.178C1495.81 546.317 1494.92 545.785 1492.17 546.937C1488.66 548.355 1488.04 547.77 1488.99 543.269C1489.77 539.441 1489.14 537.846 1486.79 537.846C1485.96 537.783 1485.14 538.14 1484.52 538.843C1483.89 539.545 1483.5 540.536 1483.43 541.603C1483.43 547.132 1474.83 543.482 1473.61 537.439C1472.55 532.247 1466.88 530.351 1466.88 535.277C1466.88 536.819 1467.95 537.315 1469.28 536.269C1470.6 535.224 1471.11 535.525 1470.31 537.191C1467.56 543.003 1459.05 534.444 1457.76 524.521C1457.1 519.364 1455.94 512.506 1455.24 509.21C1454.13 503.894 1454.73 503.203 1460.29 503.203C1466.21 503.203 1466.73 503.947 1468.05 515.288C1469.58 528.401 1473.68 530.227 1474.76 518.283C1475.22 513.427 1476.69 511.195 1479.29 511.195C1485.87 511.195 1489.64 514.189 1489.64 519.435C1489.64 524.095 1491.49 524.503 1514.66 524.503C1537.83 524.503 1539.77 524.875 1540.8 529.819C1541.63 533.824 1543.64 535.135 1548.89 535.135C1553.73 535.135 1555.87 536.358 1555.87 539.14C1555.87 541.922 1553.57 543.127 1547.61 543.127C1538.66 543.127 1536.25 548.443 1542.96 553.547C1544.97 555.053 1545.42 556.329 1543.99 556.365C1540.28 556.489 1540.79 564.445 1544.5 564.445C1545.41 564.337 1546.26 563.802 1546.88 562.942C1547.5 562.083 1547.85 560.959 1547.87 559.785C1548.08 555.691 1548.18 555.585 1548.97 559.448C1549.77 563.311 1551.93 563.648 1562.22 562.443C1574.48 561.025 1574.51 561.025 1574.51 568.202C1574.51 572.951 1575.32 574.776 1576.9 573.518C1578.48 572.26 1578.72 572.791 1577.81 574.688C1576.9 576.584 1577.31 577.771 1578.51 577.771C1579.71 577.771 1580.71 574.227 1580.71 569.779C1580.71 562.23 1581.17 561.787 1588.97 561.787H1597.22V535.206H1606.21C1611.16 535.206 1620.87 535.95 1627.74 536.872L1640.21 538.538L1641.51 548.869C1642.5 556.825 1643.69 559.182 1646.87 559.182C1650.38 559.182 1651 557.41 1651 547.026C1651 539.937 1650.16 535.525 1648.99 536.393C1647.82 537.262 1645.21 535.685 1643.05 532.849C1636.38 524.255 1591.81 519.435 1568.95 524.857C1557.32 527.622 1554.82 527.444 1548.01 523.191C1542.91 520.002 1533.66 517.875 1520.66 517.113C1509.74 516.404 1500.02 514.473 1498.94 512.789C1496.31 508.909 1483.5 503.114 1477.6 503.114C1475.12 503.114 1473.07 501.927 1473.07 500.456C1473.07 498.985 1470.21 497.798 1466.74 497.798C1462.32 497.458 1457.98 495.982 1454 493.456C1450.45 491.099 1442.12 488.583 1435.45 487.803C1428.77 487.024 1422.8 485.305 1422.2 484.047C1420.71 480.963 1413.94 481.194 1408.93 484.472L1400.68 489.788C1398.42 491.259 1392.91 492.464 1388.39 492.464C1380.68 492.464 1380.14 491.844 1378.76 483.214C1377.68 475.7 1376.33 473.786 1371.07 472.316C1358.28 468.683 1358.44 470.118 1357.49 381.285C1356.67 302.747 1356.52 300 1352.27 294.844C1348.83 290.679 1346.14 289.864 1340.04 291.105C1334.16 292.292 1331.96 291.636 1331.05 288.606C1329.53 283.467 1321.92 283.432 1316.7 288.606C1313.95 291.229 1307.5 292.54 1296.92 292.611C1285.82 292.611 1280.41 293.745 1278.69 296.439C1277.31 298.6 1275.73 313.273 1275.07 330.409C1274.43 346.995 1272.87 362.217 1271.63 364.22C1269.9 367.037 1265.62 367.48 1252.76 366.134C1242.23 365.035 1233.68 365.567 1229.37 367.463L1222.64 370.457V392.537C1222.64 406.944 1221.56 417.346 1219.53 422.273C1217.33 427.731 1216.55 437.495 1216.78 456.58C1217.02 477.366 1217.4 480.591 1218.53 471.235L1219.9 459.238L1220.22 469.232C1220.43 475.736 1221.6 479.227 1223.38 479.227C1225.17 479.227 1226.76 483.391 1227.51 489.629C1228.6 498.489 1229.45 499.8 1233.02 498.631C1235.9 497.656 1237.14 498.631 1237.14 501.537C1237.14 506.18 1239.37 506.552 1247.49 503.203C1252.03 501.342 1252.12 501.023 1248.33 500.793C1244.09 500.527 1239.21 491.011 1239.21 483.072C1239.21 480.946 1238.3 479.244 1237.2 479.244C1236.1 479.244 1235.71 477.472 1236.36 475.239C1237.8 470.402 1240.83 469.923 1240.69 474.584C1240.42 484.011 1241.52 489.894 1243.44 489.894C1244.65 489.894 1245.15 488.849 1244.54 487.573C1243.94 486.297 1245.27 483.107 1247.52 480.485C1249.76 477.862 1251.64 474.141 1251.64 472.156C1251.78 471.055 1252.22 470.056 1252.89 469.35C1253.56 468.644 1254.41 468.28 1255.28 468.329C1257.93 468.187 1258.14 467.761 1255.98 466.663C1254.37 465.848 1251.85 467.177 1250.47 469.675C1248.84 472.546 1247.39 473.219 1246.53 471.447C1245.66 469.675 1246.04 468.612 1247.1 468.612C1248.16 468.612 1249.04 465.475 1249.04 461.701C1249.04 457.927 1250.25 453.443 1251.7 451.707C1253.73 449.297 1253.98 449.403 1252.87 451.972C1251.86 454.241 1253.03 455.304 1256.61 455.304C1260.64 455.304 1261.58 456.296 1260.56 459.716C1259.66 462.693 1260.02 463.508 1261.66 462.215C1263.3 460.921 1264.05 464.483 1264.05 475.115C1264.05 490.904 1261.04 494.608 1256.22 484.614C1252.87 477.685 1250.32 477.809 1248.85 485.021C1247.38 492.234 1254.19 500.633 1259.98 498.684C1263.69 497.426 1264.11 498.684 1264.11 513.587C1264.11 522.678 1263.19 529.908 1262.03 529.908C1261.42 529.806 1260.86 529.401 1260.48 528.779C1260.09 528.158 1259.91 527.368 1259.97 526.576C1259.97 524.326 1259.2 524.538 1257.7 527.25C1255.98 530.386 1255.73 529.766 1256.6 524.503C1257.46 519.24 1256.71 517.22 1252.14 514.757C1240.64 508.537 1237 508.094 1232.04 512.346C1225.16 518.123 1221.34 517.663 1219.95 510.752C1219.05 506.392 1218.17 505.666 1216.13 507.845C1214.1 510.025 1209.49 509.068 1198.94 504.603C1191.62 501.439 1184.17 498.795 1176.62 496.681L1168.81 494.909L1169.39 479.103C1169.72 470.384 1170.76 463.278 1171.71 463.278C1172.66 463.278 1172.73 459.38 1171.9 454.613C1171.08 449.846 1170.25 418.374 1170.03 384.652C1169.81 350.929 1169.21 317.987 1168.74 311.466C1167.9 299.983 1167.58 299.451 1158.59 295.978C1151.96 293.391 1143.04 292.823 1127.55 293.975C1115.61 294.844 1102.15 295.517 1097.68 295.464C1086.68 295.358 1081.87 301.329 1082.04 315.116C1082.49 352.471 1079.29 486.315 1077.84 488.246C1074.58 492.73 1069.59 487.573 1069.59 479.67C1069.3 473.807 1068.27 468.045 1066.55 462.605C1062.92 451.423 1057.29 449.598 1032.42 451.618L1015.8 452.947V426.898C1015.8 409.018 1015.09 402.089 1013.72 404.747C1012.34 407.405 1011.74 405.403 1011.72 396.595C1011.72 385.29 1011.2 384.191 1004.84 381.267C997.429 377.723 974.578 377.085 959.444 379.761L949.938 381.427L951.176 399.342C952.208 415.291 951.809 418.002 947.806 423.159C944.132 427.89 941.945 428.475 935.657 427.075C928.105 425.303 920.524 417.488 917.938 408.911C917.222 406.519 912.531 402.301 907.468 399.502C902.405 396.702 897.04 391.651 895.568 388.267C893.642 383.801 892.61 360.995 891.826 306.149C891.22 264.382 889.955 228.71 889.074 226.867C888.534 225.905 887.837 225.107 887.031 224.531C886.225 223.956 885.33 223.616 884.41 223.536C883.606 223.513 882.842 223.08 882.285 222.333C881.728 221.585 881.424 220.584 881.439 219.549C881.439 217.351 880.503 215.544 879.375 215.544C878.247 215.544 877.298 208.349 877.298 199.383C877.298 182.282 876.183 179.89 861.724 165.572C853.029 156.942 849.342 158.005 838.185 172.412C828.747 184.568 828.155 186.181 827.261 202.147C826.491 215.916 825.404 219.868 821.318 224.209L816.269 229.525L816.723 281.819C816.97 310.615 816.502 342.601 815.691 352.861C814.219 371.166 814.081 371.503 807.987 372.176C804.079 372.436 800.179 371.494 796.609 369.43C791.739 366.205 791.367 364.379 789.95 336.788C789.125 320.698 788.575 256.886 788.575 195.023C788.698 93.8032 788.354 82.4266 785.397 82.4266C779.522 82.4266 774.39 72.698 772.863 58.9468C772.065 51.575 769.259 41.6869 766.59 37.0441C763.18 30.4279 760.659 23.1193 759.133 15.4249C756.863 3.25087 755.46 -0.346424 751.044 0.0257094ZM277.781 269.184C275.786 269.096 275.029 270.956 275.029 275.51C275.029 280.827 275.937 282.333 278.647 281.677C279.719 281.328 280.67 280.529 281.349 279.406C282.028 278.282 282.397 276.899 282.397 275.475C282.397 274.051 282.028 272.668 281.349 271.544C280.67 270.421 279.719 269.622 278.647 269.273C278.354 269.181 278.055 269.128 277.753 269.113L277.781 269.184ZM278.166 287.49C275.923 287.49 275.057 290.467 275.057 298.122C275.057 305.777 275.923 308.754 278.166 308.754C280.408 308.754 281.261 305.777 281.261 298.122C281.261 290.467 280.422 287.49 278.18 287.49H278.166ZM694.211 340.793C693.757 340.793 692.835 342.565 692.202 344.798C691.569 347.031 691.941 348.785 693.041 348.785C694.142 348.785 695.05 347.013 695.05 344.798C695.05 342.583 694.734 340.793 694.225 340.793H694.211ZM311.267 407.423C309.327 407.423 308.158 409.939 308.158 414.086C308.158 418.232 306.988 420.749 305.062 420.749C304.24 420.749 303.451 421.168 302.868 421.915C302.286 422.663 301.956 423.677 301.953 424.736C301.953 431.452 311.583 429.715 313.069 422.733C315.174 412.721 314.541 407.423 311.28 407.423H311.267ZM473.414 431.399C470.484 431.399 469.535 433.348 469.535 439.391C469.535 446.178 470.333 447.383 474.776 447.383C477.652 447.383 480.582 445.611 481.242 443.307C482.866 438.079 478.395 431.399 473.428 431.399H473.414ZM556.428 439.391C552.108 439.391 551.42 441.429 553.525 448.464C555.534 455.215 560.569 453.496 560.569 446.054C560.583 441.181 559.482 439.391 556.442 439.391H556.428ZM575.042 447.383C572.731 447.383 570.915 449.155 570.915 451.388C570.915 453.62 572.745 455.392 575.042 455.392C577.34 455.392 579.169 453.62 579.169 451.388C579.169 449.155 577.367 447.383 575.042 447.383ZM594.688 447.383C594.073 447.383 593.472 447.618 592.961 448.058C592.449 448.498 592.051 449.123 591.815 449.855C591.58 450.587 591.519 451.392 591.639 452.169C591.758 452.946 592.055 453.659 592.489 454.219C592.924 454.779 593.478 455.161 594.081 455.315C594.685 455.47 595.31 455.391 595.878 455.088C596.446 454.784 596.932 454.271 597.273 453.613C597.615 452.954 597.797 452.18 597.797 451.388C597.797 450.332 597.474 449.318 596.896 448.568C596.319 447.818 595.535 447.392 594.716 447.383H594.688ZM555.382 455.392C554.766 455.389 554.163 455.621 553.65 456.06C553.136 456.499 552.736 457.124 552.499 457.857C552.262 458.589 552.199 459.396 552.319 460.174C552.438 460.953 552.734 461.668 553.17 462.229C553.606 462.79 554.161 463.172 554.765 463.326C555.37 463.48 555.996 463.399 556.565 463.094C557.134 462.789 557.619 462.273 557.96 461.611C558.3 460.95 558.481 460.173 558.478 459.38C558.474 458.33 558.151 457.324 557.577 456.578C557.003 455.832 556.225 455.406 555.41 455.392H555.382ZM1253.5 458.051C1252.97 458.074 1252.47 458.366 1252.1 458.864C1251.74 459.362 1251.55 460.025 1251.56 460.709C1251.56 462.179 1253.02 463.384 1254.79 463.384C1256.57 463.384 1257.44 462.179 1256.73 460.709C1256.38 459.988 1255.92 459.375 1255.36 458.916C1254.81 458.456 1254.18 458.161 1253.53 458.051H1253.5ZM583.833 458.139C582.251 457.891 579.816 459.539 577.945 462.711C576.267 465.564 575.193 466.078 575.097 464.04C575.001 459.149 564.696 459.823 564.696 464.713C564.696 467.194 562.743 468.701 559.523 468.701C555.149 468.701 554.351 469.959 554.351 476.71C554.351 484.702 554.351 484.702 566.732 484.702C577.739 484.702 579.114 485.287 579.114 490.019C579.114 492.996 580.49 495.335 582.224 495.335C584.562 495.335 585.319 498.595 585.319 508.661C585.319 520.214 585.883 521.986 589.446 521.986C593.285 521.986 593.574 520.214 593.574 498.011C593.574 476.143 593.243 474.017 589.625 474.017C587.452 474.017 585.154 475.523 584.59 477.348C584.026 479.173 583.558 477.082 583.558 472.688C583.558 468.293 584.012 466.184 584.59 468.027C586.048 472.705 591.469 472.192 591.469 467.354C591.465 466.295 591.136 465.281 590.553 464.533C589.971 463.786 589.182 463.367 588.359 463.367C586.654 463.367 585.25 462.162 585.25 460.691C585.25 459.22 584.796 458.281 583.861 458.139H583.833ZM522.474 463.455C518.347 463.455 515.265 471.926 518.787 473.45C520.163 474.017 521.25 476.799 521.25 479.599C521.266 481.009 521.717 482.353 522.502 483.335C523.288 484.317 524.344 484.856 525.439 484.835C526.534 484.814 527.577 484.234 528.339 483.222C529.102 482.21 529.521 480.849 529.504 479.439C529.504 476.515 528.197 474.123 526.601 474.123C524.703 474.123 524.084 472.351 524.785 468.807C525.487 465.263 524.895 463.384 522.502 463.384L522.474 463.455ZM598.444 463.455C595.266 463.739 593.656 465.121 593.656 467.442C593.656 470.112 595.724 471.447 599.861 471.447C603.997 471.447 606.066 472.776 606.066 475.434C606.063 476.227 606.243 477.003 606.583 477.664C606.923 478.325 607.408 478.841 607.975 479.147C608.543 479.453 609.169 479.535 609.773 479.382C610.377 479.23 610.932 478.85 611.368 478.29C611.805 477.731 612.102 477.017 612.223 476.24C612.344 475.463 612.284 474.657 612.049 473.924C611.814 473.191 611.415 472.564 610.904 472.123C610.392 471.683 609.79 471.447 609.175 471.447C608.351 471.443 607.563 471.019 606.98 470.269C606.398 469.519 606.069 468.503 606.066 467.442C606.066 464.784 603.997 463.455 599.861 463.455C599.379 463.384 598.925 463.331 598.43 463.384L598.444 463.455ZM644.339 463.455C643.724 463.455 643.122 463.691 642.611 464.132C642.099 464.572 641.7 465.199 641.466 465.932C641.231 466.665 641.17 467.471 641.291 468.248C641.412 469.025 641.71 469.739 642.146 470.298C642.582 470.858 643.137 471.238 643.741 471.39C644.345 471.543 644.971 471.461 645.539 471.155C646.107 470.849 646.591 470.333 646.931 469.672C647.271 469.011 647.451 468.235 647.449 467.442C647.456 466.914 647.382 466.39 647.23 465.899C647.079 465.408 646.853 464.961 646.566 464.584C646.28 464.206 645.938 463.905 645.56 463.7C645.182 463.494 644.777 463.387 644.367 463.384L644.339 463.455ZM1336.35 463.455C1334.05 463.455 1332.22 465.227 1332.22 467.442C1332.22 469.658 1334.07 471.447 1336.35 471.447C1338.63 471.447 1340.48 469.675 1340.48 467.442C1340.48 465.21 1338.72 463.384 1336.42 463.384L1336.35 463.455ZM275.125 463.757C269.705 463.987 268.797 465.05 269.237 468.01C269.622 470.561 272.622 473.326 276.116 474.336C285.595 476.941 287.494 476.888 287.494 473.999C287.494 472.546 289.365 471.341 291.621 471.341C293.877 471.341 295.748 469.658 295.748 467.673C295.748 465.032 292.089 463.969 282.169 463.757C279.225 463.757 276.928 463.757 275.125 463.757ZM680.701 469.959C679.678 469.899 678.672 470.314 677.867 471.128C676.642 472.705 672.57 474.034 668.814 474.034C664.123 474.034 661.935 475.293 661.935 478.039C661.935 481.282 665.265 482.027 679.518 482.027C692.849 482.027 697.1 481.158 697.1 478.482C697.127 474.389 686.341 469.569 680.701 469.959ZM175.795 474.034C172.576 474.034 171.668 475.807 171.668 482.027C171.668 491.56 176.786 493.013 178.657 484.029C180.528 475.045 180.198 474.034 175.768 474.034H175.795ZM292.735 474.034C292.12 474.034 291.519 474.269 291.008 474.71C290.496 475.15 290.098 475.775 289.863 476.507C289.627 477.239 289.566 478.044 289.686 478.821C289.806 479.598 290.102 480.311 290.537 480.871C290.971 481.431 291.525 481.813 292.129 481.967C292.732 482.122 293.357 482.042 293.925 481.739C294.493 481.436 294.979 480.923 295.32 480.264C295.662 479.606 295.844 478.831 295.844 478.039C295.845 477.504 295.761 476.975 295.6 476.482C295.439 475.989 295.202 475.543 294.905 475.169C294.607 474.796 294.255 474.503 293.868 474.308C293.481 474.113 293.068 474.02 292.653 474.034H292.735ZM624.804 474.034C622.506 474.034 620.676 475.807 620.676 478.039C620.676 480.272 622.52 482.027 624.804 482.027C627.087 482.027 628.931 480.254 628.931 478.039C628.931 475.824 627.018 474.034 624.721 474.034H624.804ZM638.121 474.371C632.618 474.602 631.008 475.647 631.008 478.039C631.008 481.229 633.76 481.867 644.972 481.583C654.52 481.3 656.639 480.768 651.7 479.811L644.449 478.482L651.7 476.569C657.533 475.08 656.226 474.69 644.972 474.407C642.097 474.389 639.868 474.389 638.038 474.389L638.121 474.371ZM417.847 476.781C415.742 476.781 412.619 477.065 408.079 477.614C400.403 478.553 390.194 479.28 385.324 479.28C378.899 479.28 376.533 480.449 376.533 483.373C376.524 483.909 376.433 484.436 376.266 484.926C376.099 485.417 375.858 485.859 375.558 486.23C375.258 486.6 374.904 486.89 374.516 487.084C374.129 487.278 373.716 487.372 373.3 487.36C368.966 487.36 370.342 496.327 374.855 497.443C375.844 497.618 376.848 497.301 377.663 496.558C378.478 495.814 379.043 494.699 379.243 493.439C379.876 490.337 380.261 491.312 380.413 496.114C380.537 500.19 382.132 504.23 383.907 505.099C386.15 506.215 386.741 508.767 385.902 513.676C385.063 518.584 385.792 521.721 388.874 524.591C391.185 526.736 393.083 530.032 393.083 531.91C393.083 533.788 395.409 535.33 398.256 535.33C401.476 535.33 403.429 536.836 403.429 539.335C403.379 540.32 403.616 541.293 404.095 542.064C404.574 542.835 405.259 543.347 406.016 543.499C407.391 543.499 404.447 546.069 399.357 548.993C393.537 552.306 389.795 553.175 389.328 551.403C388.062 546.476 382.738 548.443 382.738 553.813C382.738 557.357 380.371 560.033 375.501 562.319C368.856 565.402 368.278 566.572 368.251 576.495C368.251 583.707 367.591 586.047 366.38 583.583C365.004 580.854 362.542 580.465 356.612 582.006C351.758 583.198 346.817 583.698 341.878 583.495C336.471 583.016 335.15 583.902 335.15 587.996C335.054 590.361 335.504 592.711 336.443 594.747C339.112 598.167 362.459 595.722 363.601 591.912C364.44 589.077 365.059 588.935 366.256 591.416C367.109 593.188 372.598 595.279 378.404 595.988C388.117 597.193 388.942 596.874 388.942 591.664C388.942 587.5 390.181 586.011 393.606 586.171C396.165 586.277 397.087 587.003 395.67 587.748C394.934 588.187 394.304 588.875 393.848 589.74C393.393 590.605 393.128 591.613 393.083 592.656C393.083 595.173 395.835 596.2 402.452 595.899C409.07 595.598 411.546 594.57 410.858 592.249C410.253 590.211 410.968 589.502 412.798 590.477C414.628 591.451 415.357 592.834 414.807 594.021C414.256 595.208 420.062 596.147 427.739 596.183C435.416 596.218 440.327 595.598 438.663 594.765C436.147 593.008 433.945 590.594 432.196 587.677C429.115 582.768 428.358 582.609 425.015 586.1C422.965 588.244 421.92 588.616 422.69 586.933C424.258 583.566 418.645 579.72 415.646 582.095C414.614 582.928 413.775 581.847 413.775 579.685C413.775 575.804 418.508 575.219 421.273 578.763C423.213 581.262 426.68 581.209 425.469 578.763C424.946 577.665 428.138 576.406 432.582 576.017C438.69 575.45 440.671 576.265 440.671 579.348C440.671 581.581 439.722 583.424 438.594 583.424C437.466 583.424 438.594 586.419 441.056 590.087C447.509 599.638 448.94 598.398 448.94 583.424C448.94 571.338 449.462 570.027 454.443 568.432C457.414 567.475 467.416 567.263 476.689 567.936C485.961 568.609 491.162 568.556 488.314 567.847L483.155 566.607L488.314 564.835C492.716 563.293 491.698 562.514 481.6 559.519C475.052 557.587 469.7 555.018 469.7 553.777C469.7 552.537 468.324 551.527 466.591 551.527C464.857 551.527 463.495 549.099 463.495 545.874C463.495 541.231 462.67 540.558 458.845 542.117C447.921 546.618 440.74 546.884 440.74 542.702C440.74 537.581 428.028 531.928 419.911 533.47C415.22 534.356 413.844 533.47 413.844 529.925C413.844 526.612 410.913 524.379 403.498 521.933C391.694 518.035 389.74 512.524 400.127 512.524C409.125 512.524 413.885 506.304 413.885 494.36C413.885 486.634 414.655 484.879 418.012 484.879C420.461 484.879 422.14 483.107 422.14 480.467C422.14 477.827 421.438 477.047 417.944 476.923L417.847 476.781ZM749.64 477.703C748.875 477.796 748.131 478.087 747.455 478.559C746.779 479.031 746.184 479.674 745.706 480.449C742.156 485.021 744.495 486.279 748.457 481.956C749.833 480.467 750.493 480.06 749.943 481.034C749.393 482.009 749.943 484.472 751.236 486.35C754.18 490.94 763.384 490.993 763.384 486.439C763.384 484.543 760.137 481.477 756.148 479.617C754.086 478.427 751.869 477.747 749.613 477.614L749.64 477.703ZM305.158 479.368C304.543 479.365 303.94 479.597 303.427 480.035C302.914 480.473 302.513 481.097 302.276 481.828C302.039 482.56 301.975 483.366 302.093 484.144C302.212 484.922 302.507 485.637 302.941 486.199C303.375 486.761 303.929 487.144 304.533 487.3C305.136 487.456 305.762 487.378 306.331 487.075C306.9 486.772 307.387 486.259 307.729 485.6C308.071 484.941 308.254 484.166 308.254 483.373C308.254 482.84 308.171 482.312 308.011 481.82C307.85 481.328 307.615 480.883 307.319 480.51C307.023 480.137 306.672 479.843 306.287 479.647C305.902 479.451 305.49 479.357 305.076 479.368H305.158ZM183.087 484.685C182.471 484.685 181.87 484.92 181.358 485.361C180.846 485.802 180.448 486.428 180.213 487.161C179.978 487.894 179.917 488.7 180.038 489.477C180.159 490.255 180.457 490.968 180.893 491.528C181.329 492.087 181.885 492.467 182.489 492.62C183.093 492.772 183.718 492.69 184.286 492.384C184.854 492.079 185.339 491.562 185.679 490.902C186.019 490.241 186.199 489.465 186.196 488.672C186.195 488.133 186.108 487.6 185.943 487.105C185.777 486.61 185.535 486.164 185.232 485.793C184.928 485.422 184.569 485.134 184.177 484.946C183.785 484.759 183.367 484.676 182.949 484.702L183.087 484.685ZM821.221 484.685C818.69 485.004 817.204 486.457 817.204 488.672C817.204 491.17 819.158 492.677 822.377 492.677C825.596 492.677 827.55 491.17 827.55 488.672C827.55 486.173 825.596 484.685 822.377 484.685C821.964 484.66 821.551 484.666 821.139 484.702L821.221 484.685ZM1217.44 489.434C1217.17 489.611 1216.95 491.206 1216.92 494.006C1216.92 498.4 1217.32 500.474 1217.9 498.666C1218.44 496.049 1218.44 493.291 1217.9 490.674C1217.7 489.7 1217.54 489.31 1217.39 489.434H1217.44ZM1221.57 489.434C1221.31 489.611 1221.09 491.206 1221.06 494.006C1221.06 498.4 1221.46 500.474 1222.02 498.666C1222.57 496.049 1222.57 493.291 1222.02 490.674C1221.83 489.7 1221.67 489.31 1221.5 489.434H1221.57ZM354.452 493.084C351.7 493.439 351.301 495.193 352.375 498.843C353.902 503.947 370.356 504.408 370.356 499.34C370.356 497.213 366.93 495.016 361.95 493.917C359.448 493.256 356.894 492.982 354.342 493.102L354.452 493.084ZM946.925 498.4C930.663 499.056 897.301 509.21 890.684 517.734C888.854 520.073 887.574 526.594 887.574 533.877C887.574 545.608 887.354 546.069 882.402 544.509C878.109 543.127 877.229 543.765 877.229 548.426C877.229 551.651 878.604 554.096 880.338 554.096C882.402 554.096 883.433 556.76 883.433 562.088C883.433 569.814 883.117 570.063 873.611 570.24C866.553 570.382 864.957 571.055 867.929 572.579C872.056 574.688 872.056 574.688 867.929 576.247C865.645 577.098 870.46 577.487 878.66 577.151C895.265 576.477 897.92 574.865 894.233 567.334C891.248 561.185 890.904 553.157 893.724 555.337C894.811 556.205 895.1 558.615 894.495 560.759C894.355 561.311 894.301 561.892 894.337 562.47C894.372 563.049 894.495 563.612 894.7 564.129C894.904 564.646 895.186 565.106 895.528 565.482C895.871 565.859 896.267 566.145 896.696 566.323C897.569 566.738 898.337 567.453 898.916 568.39C899.496 569.327 899.865 570.451 899.984 571.64C900.016 572.666 900.36 573.635 900.942 574.338C901.523 575.04 902.296 575.421 903.093 575.396C907.537 575.396 907.042 585.905 902.57 586.383C896.723 587.003 875.702 587.854 852.919 588.297C835.571 588.652 831.718 589.431 831.718 592.71C831.718 595.988 836.974 596.626 868.96 596.13C903.162 595.598 906.202 595.173 906.202 590.813C906.202 586.454 908.321 586.064 924.816 586.064C939.95 586.064 943.431 586.809 943.431 590.069C943.431 596.626 948.411 594.535 951.19 586.826C955.193 575.715 954.533 567.422 949.649 567.422C946.388 567.422 945.522 569.194 945.37 576.07C945.288 580.837 944.724 583.158 944.146 581.386C943.568 579.614 940.404 578.055 937.102 578.055C929.48 578.055 928.614 573.748 929.412 540.841L929.989 515.696L942.922 510.379C950.516 507.261 955.854 503.539 955.854 501.395C955.854 499.251 952.346 498.259 946.925 498.471V498.4ZM375.419 503.344C374.803 503.341 374.201 503.573 373.688 504.011C373.174 504.449 372.774 505.073 372.536 505.804C372.299 506.536 372.235 507.342 372.354 508.12C372.472 508.898 372.767 509.613 373.201 510.175C373.636 510.737 374.19 511.12 374.793 511.276C375.397 511.432 376.023 511.354 376.592 511.051C377.16 510.748 377.647 510.235 377.989 509.576C378.331 508.917 378.514 508.142 378.514 507.349C378.511 506.292 378.184 505.278 377.604 504.529C377.025 503.779 376.24 503.354 375.419 503.344ZM228.528 508.661C227.913 508.657 227.31 508.889 226.797 509.327C226.284 509.765 225.883 510.389 225.646 511.121C225.408 511.852 225.345 512.658 225.463 513.436C225.582 514.214 225.877 514.929 226.311 515.491C226.745 516.053 227.299 516.436 227.903 516.592C228.506 516.748 229.132 516.67 229.701 516.367C230.27 516.065 230.756 515.551 231.099 514.892C231.441 514.233 231.624 513.458 231.624 512.665C231.617 511.611 231.288 510.602 230.709 509.856C230.13 509.111 229.347 508.688 228.528 508.678V508.661ZM544.032 508.661C541.735 508.661 539.905 510.433 539.905 512.665C539.905 514.898 541.749 516.653 544.032 516.653C546.316 516.653 548.16 514.88 548.16 512.665C548.16 510.45 546.33 508.678 544.032 508.678V508.661ZM840.014 508.661C830.288 508.661 829.297 510.167 830.893 522.837C831.663 528.951 833.301 532.583 835.227 532.583C837.442 532.583 837.978 530.351 837.359 524.662C836.864 520.338 837.263 517.415 838.198 518.177C841.115 520.498 848.159 516.404 848.159 512.346C848.159 509.83 845.71 508.678 840.014 508.678V508.661ZM858.505 508.661C856.207 508.661 854.377 510.433 854.377 512.665C854.377 514.898 856.221 516.653 858.505 516.653C860.788 516.653 862.632 514.88 862.632 512.665C862.632 510.45 860.802 508.678 858.45 508.678L858.505 508.661ZM578.165 513.977C577.55 513.977 576.948 514.212 576.436 514.653C575.925 515.094 575.526 515.72 575.291 516.453C575.056 517.186 574.996 517.992 575.117 518.77C575.238 519.547 575.535 520.26 575.971 520.82C576.408 521.379 576.963 521.759 577.567 521.912C578.171 522.064 578.797 521.982 579.365 521.676C579.932 521.371 580.417 520.855 580.757 520.194C581.097 519.533 581.277 518.757 581.274 517.964C581.267 516.91 580.936 515.902 580.353 515.161C579.77 514.421 578.984 514.007 578.165 514.012V513.977ZM485.191 519.293C483.558 519.32 481.979 520.058 480.713 521.387C479.447 522.715 478.567 524.557 478.216 526.612C477.803 530.333 476.083 532.619 473.758 532.619C470.291 532.619 467.485 537.439 467.485 543.446C467.485 546.6 499.994 546.689 500.902 543.446C501.287 542.135 505.263 540.629 509.693 540.115C517.301 539.246 517.948 539.743 520.232 548.532C522.419 556.843 523.561 557.942 530.77 558.615C536.782 559.164 538.062 558.615 535.75 556.613C533.865 554.965 533.604 553.884 535.104 553.866C538.282 553.866 540.51 558.349 538.213 560.192C534.498 563.151 501.824 562.567 501.067 559.519C500.726 558.613 500.191 557.85 499.527 557.32C498.862 556.79 498.093 556.514 497.311 556.524C493.652 556.524 493.514 568.007 496.926 584.416L499.375 596.661H523.368V577.47L544.005 578.391L564.641 579.295V566.642C564.641 557.162 563.857 553.99 561.532 553.99C559.606 553.99 558.423 556.506 558.423 560.653C558.423 565.561 557.336 567.316 554.227 567.316C553.063 567.271 551.932 566.809 550.96 565.983C549.988 565.157 549.214 563.998 548.724 562.638C548.003 560.046 546.787 557.73 545.188 555.904C543.936 554.805 545.023 553.937 547.651 553.919C550.278 553.901 552.301 552.944 552.301 551.828C552.301 550.712 555.561 548.532 559.551 546.919C565.288 544.598 567.984 544.846 572.483 547.912C575.592 550.056 582.595 552.271 587.988 552.909C595.802 553.848 597.825 553.299 597.825 550.074C597.825 546.849 600.576 546.175 614.334 546.919C625.12 547.504 630.375 546.919 629.467 545.147C628.559 543.375 629.178 543.269 630.375 544.226C631.572 545.183 632.068 548.372 631.476 551.314C630.664 555.319 628.656 556.63 623.4 556.63C616.604 556.63 616.411 556.949 616.411 567.263C616.411 574.953 617.278 577.895 619.521 577.895C621.227 577.895 622.616 575.485 622.616 572.579C622.616 567.865 623.221 567.688 628.312 570.417C631.75 572.363 634.883 575.102 637.557 578.498C639.497 581.262 642.289 583.335 643.762 583.07C645.234 582.804 654.039 582.733 663.352 582.91C679.05 583.211 680.329 583.619 680.935 588.988C681.306 592.178 682.682 595.244 684.044 595.811C685.777 596.555 686.204 594.18 685.42 587.748C684.347 579.224 684.677 578.48 690.345 577.417C693.688 576.779 696.577 577.541 696.742 579.082C696.907 580.624 697.279 584.788 697.581 588.332C698.448 598.203 703.332 598.557 703.332 588.74V580.713H719.841C733.172 580.713 736.35 579.951 736.35 576.725C736.35 575.666 736.025 574.65 735.445 573.9C734.865 573.149 734.077 572.725 733.255 572.721C732.416 572.693 731.619 572.24 731.037 571.461C730.455 570.681 730.135 569.638 730.146 568.556C730.146 565.225 732.416 564.587 742.046 565.225L753.946 566.058L753.493 576.052C753.176 582.821 753.919 586.047 755.749 586.047C758.569 586.047 762.174 573.341 764.278 556.063C765.31 547.699 764.939 545.998 761.83 545.821C759.656 545.697 759.078 545.023 760.66 544.244C764.787 542.082 763.646 535.383 759.106 535.383C756.836 535.383 754.978 536.978 754.978 538.927C754.978 541.231 752.722 542.472 748.774 542.259C745.362 542.099 742.569 541.107 742.555 540.008C742.541 538.91 740.698 538.006 738.428 538.006C736.158 538.006 734.301 539.034 734.301 540.345C734.301 543.358 717.791 545.661 716.416 542.755C715.04 539.849 703.222 540.221 703.222 543.34C703.222 544.045 703.005 544.721 702.618 545.219C702.231 545.718 701.706 545.998 701.158 545.998C700.017 545.998 699.081 544.049 699.081 541.674C699.081 538.679 697.829 537.793 694.954 538.768C692.67 539.53 690.262 538.945 689.588 537.51C689.095 536.759 688.424 536.237 687.678 536.026C686.932 535.814 686.153 535.925 685.461 536.34C684.814 536.751 684.082 536.885 683.372 536.723C682.661 536.56 682.01 536.11 681.513 535.436C680.577 533.487 665.003 533.363 661.798 535.259C659.219 535.61 656.618 535.61 654.039 535.259C649.459 535.25 644.934 536.526 640.776 538.998C636.952 541.462 633.32 542.259 631.985 540.93C630.651 539.601 623.442 535.755 615.765 532.264C608.088 528.773 601.787 524.45 601.787 522.607C601.714 521.639 601.348 520.748 600.769 520.125C600.19 519.501 599.444 519.196 598.692 519.275C598.267 519.239 597.841 519.315 597.44 519.499C597.039 519.684 596.671 519.972 596.361 520.347C596.05 520.721 595.802 521.174 595.632 521.677C595.463 522.18 595.376 522.723 595.376 523.271C595.376 523.82 595.463 524.362 595.632 524.865C595.802 525.368 596.05 525.821 596.361 526.196C596.671 526.57 597.039 526.859 597.44 527.043C597.841 527.227 598.267 527.304 598.692 527.267C600.397 527.267 601.787 528.455 601.787 530.014C601.787 531.573 602.956 532.105 604.373 531.183C605.79 530.262 605.171 531.361 602.998 533.682C600.342 536.447 599.916 537.917 601.773 537.917C603.314 537.917 603.961 538.697 603.149 539.689C602.337 540.682 599.586 538.803 596.875 535.525C593.69 531.96 589.704 529.8 585.498 529.358C581.948 529.234 579.032 528.1 579.032 526.86C579.032 525.619 575.771 524.609 571.795 524.609C567.819 524.609 564.559 523.422 564.559 521.951C564.559 520.48 563.183 519.293 561.45 519.293C559.716 519.293 558.34 520.604 558.34 522.288C558.34 524.432 554.337 524.857 544.707 523.705C532.132 522.181 531.059 522.447 531.967 526.948C532.875 531.449 532.228 531.591 524.538 529.358C519.695 527.989 514.748 527.323 509.79 527.374C494.037 528.419 487.997 527.214 487.997 523.032C488.02 522.526 487.959 522.019 487.817 521.546C487.674 521.073 487.455 520.644 487.173 520.29C486.892 519.936 486.554 519.663 486.184 519.491C485.813 519.319 485.418 519.252 485.026 519.293H485.191ZM847.127 519.293C844.885 519.293 844.018 522.252 844.018 529.925C844.018 537.598 844.885 540.558 847.127 540.558C849.37 540.558 850.223 537.598 850.223 529.925C850.223 522.252 849.37 519.346 847.127 519.346V519.293ZM857.473 519.293C855.134 519.293 854.364 522.483 854.364 532.371C854.364 545.006 854.116 545.626 847.127 548.603C843.124 550.375 838.639 553.192 837.167 555.089C835.295 557.516 832.035 557.924 826.312 556.506C821.813 555.408 820.258 554.344 822.817 554.185C825.679 553.99 827.577 552.129 827.729 549.259C827.963 544.828 827.99 544.828 828.884 549.259C829.971 554.575 835.763 555.656 835.763 550.517C835.763 546.193 828.375 537.935 824.509 537.935C822.9 537.935 821.249 540.398 820.891 543.446L820.245 548.94L815.65 543.446C809.679 536.216 809.197 536.358 805.758 546.6C804.093 551.562 802.772 553.263 802.717 550.605C802.635 545.289 794.133 545.537 792.757 550.853C791.188 556.932 788.781 553.76 789.785 546.937C790.721 540.646 790.322 540.186 785.85 541.94C778.531 544.793 777.844 546.388 779.192 557.02L780.347 566.749L803.818 568.521C816.709 569.549 830.398 569.939 834.277 569.354C840.221 568.45 841.156 569.088 840.345 573.093C839.313 578.232 844.857 579.933 847.141 575.184C847.842 573.713 851.626 572.508 855.547 572.508C860.486 572.508 862.659 571.303 862.659 568.521C862.659 567.462 862.985 566.446 863.565 565.695C864.145 564.945 864.933 564.521 865.755 564.516C866.6 564.474 867.399 564.008 867.981 563.216C868.562 562.424 868.879 561.37 868.864 560.281C868.864 556.985 867.488 556.489 862.659 557.853C857.005 559.448 856.441 558.952 856.441 552.696C856.441 548.922 857.376 545.874 858.518 545.874C859.66 545.874 860.582 547.752 860.582 550.109C860.582 553.458 861.848 554.025 866.278 552.608C868.874 551.918 871.35 550.621 873.583 548.78C875.922 545.838 873.088 537.864 869.703 537.864C868.908 537.827 868.156 537.388 867.61 536.642C867.064 535.895 866.768 534.902 866.787 533.877C866.787 532.818 866.461 531.802 865.881 531.051C865.301 530.301 864.513 529.877 863.691 529.872C861.958 529.872 860.582 527.515 860.582 524.556C860.582 521.597 859.192 519.346 857.473 519.346V519.293ZM878.109 532.619C877.494 532.619 876.892 532.854 876.38 533.295C875.869 533.736 875.47 534.362 875.235 535.095C875.001 535.828 874.94 536.634 875.061 537.412C875.182 538.189 875.479 538.903 875.916 539.462C876.352 540.021 876.907 540.401 877.511 540.554C878.115 540.706 878.741 540.624 879.309 540.319C879.877 540.013 880.361 539.497 880.701 538.836C881.041 538.175 881.221 537.399 881.218 536.606C881.208 535.564 880.881 534.569 880.307 533.833C879.734 533.098 878.96 532.681 878.151 532.672L878.109 532.619ZM1171.26 537.935C1169.28 537.935 1166.73 544.013 1166.73 548.762C1166.73 550.109 1169.48 551.261 1172.94 551.261C1176.39 551.261 1179.14 549.914 1179.14 548.355C1179.18 544.846 1173.98 537.988 1171.3 537.988L1171.26 537.935ZM1523.1 537.935C1517.56 537.85 1512.04 538.407 1506.59 539.601C1499.97 541.887 1500.7 548.461 1507.62 548.851C1511.11 549.046 1511.91 549.684 1509.68 550.428C1508.75 550.686 1507.91 551.304 1507.26 552.197C1506.62 553.09 1506.2 554.217 1506.06 555.425C1506.06 558.331 1509.24 559.253 1519.52 559.253C1531.58 559.253 1532.96 559.802 1532.96 564.569C1532.96 567.529 1534.34 569.885 1536.07 569.885C1537.8 569.885 1539.16 567.511 1539.16 564.569C1539.16 561.628 1538.24 559.253 1537.1 559.253C1535.96 559.253 1535.04 554.468 1535.04 548.621V537.988L1523.1 537.935ZM1262.92 543.907C1259.19 543.828 1255.45 544.053 1251.74 544.58L1237.07 546.494V569.301L1248.84 570.559C1255.4 571.25 1261.04 573.181 1261.51 574.971C1261.89 575.936 1262.51 576.702 1263.28 577.141C1264.05 577.58 1264.91 577.665 1265.72 577.381C1268.28 576.761 1269.31 573.022 1269.84 562.23C1270.19 554.344 1269.58 546.654 1268.47 545.236C1267.86 544.474 1265.9 544.031 1262.92 543.907ZM514.894 548.904C513.024 549.107 511.177 549.582 509.391 550.322C506.832 551.208 504.741 553.547 504.741 555.638C504.741 557.959 507.038 559.377 510.945 559.377C515.774 559.377 517.15 558.207 517.15 554.061C517.136 550.375 516.861 548.904 514.935 548.904H514.894ZM875.014 559.306C872.716 559.306 870.886 561.078 870.886 563.311C870.886 565.544 872.73 567.316 875.014 567.316C877.298 567.316 879.141 565.544 879.141 563.311C879.141 561.078 877.353 559.306 875.055 559.306H875.014ZM341.025 561.982C338.273 562.301 337.145 563.896 337.145 567.298C337.145 571.197 338.521 572.614 342.318 572.614C346.115 572.614 347.491 571.197 347.491 567.298C347.491 563.4 346.115 561.982 342.318 561.982C341.836 561.982 341.423 561.929 341.025 561.982ZM969.57 561.982C966.705 561.961 963.853 562.493 961.109 563.559C959.032 564.587 957.807 568.415 957.807 574.05C957.807 578.941 956.872 583.725 955.744 584.682C955.099 585.322 954.577 586.144 954.217 587.083C953.857 588.023 953.669 589.057 953.666 590.105C953.666 594.801 961.205 595.297 962.664 590.672C963.283 588.687 963.792 589.219 963.888 592.018C964.012 595.722 965.897 596.679 973.326 596.679H982.64V583.442C982.64 576.194 981.718 569.531 980.562 568.609C980.01 568.216 979.6 567.56 979.42 566.781C979.24 566.002 979.304 565.163 979.599 564.445C980.425 562.673 975.018 561.787 969.57 561.982ZM995.049 563.559C989.216 563.772 984.704 566.678 984.704 571.214C984.704 574.44 987.455 575.308 998.158 575.308C1013.87 575.308 1016.59 569.992 1003.52 564.977C1000.78 563.925 997.915 563.446 995.049 563.559ZM602.956 564.64C602.133 564.645 601.344 565.068 600.762 565.818C600.18 566.568 599.851 567.584 599.847 568.645C599.847 570.842 598.912 572.632 597.783 572.632C596.655 572.632 595.706 575.042 595.706 577.948C595.706 581.864 597.082 583.264 600.879 583.264C605.419 583.264 606.052 582.113 606.052 573.943C606.093 567.458 605.158 564.64 602.998 564.64H602.956ZM324.68 567.316C317.802 567.316 315.876 574.05 322.094 576.176C329.248 578.586 330.885 577.948 330.885 572.632C330.926 568.485 329.551 567.316 324.722 567.316H324.68ZM1206.04 569.974C1201.57 569.974 1201 573.908 1203.29 588.457C1204.22 594.464 1205.09 595.952 1206.33 593.454C1207.27 591.504 1208.11 591.221 1208.13 592.798C1208.14 594.375 1210.73 595.137 1214.33 594.464C1221.91 593.028 1222.77 585.958 1215.38 585.958C1211 585.958 1210.21 584.718 1210.21 577.966C1210.22 571.746 1209.27 569.974 1206.08 569.974H1206.04ZM1585.75 569.974C1585.13 569.974 1584.53 570.209 1584.02 570.649C1583.51 571.089 1583.11 571.714 1582.87 572.446C1582.64 573.178 1582.58 573.983 1582.7 574.76C1582.82 575.537 1583.11 576.251 1583.55 576.811C1583.98 577.371 1584.54 577.752 1585.14 577.907C1585.74 578.061 1586.37 577.982 1586.94 577.679C1587.51 577.376 1587.99 576.862 1588.33 576.204C1588.67 575.545 1588.86 574.771 1588.86 573.979C1588.86 573.45 1588.78 572.926 1588.62 572.438C1588.46 571.95 1588.23 571.507 1587.94 571.134C1587.64 570.762 1587.3 570.468 1586.92 570.269C1586.54 570.069 1586.13 569.969 1585.72 569.974H1585.75ZM741.633 572.632C741.018 572.632 740.417 572.867 739.906 573.307C739.395 573.747 738.996 574.373 738.761 575.104C738.525 575.836 738.464 576.641 738.584 577.418C738.704 578.195 739 578.909 739.435 579.469C739.87 580.029 740.424 580.41 741.027 580.565C741.63 580.719 742.255 580.64 742.823 580.337C743.391 580.034 743.877 579.52 744.219 578.862C744.56 578.203 744.743 577.429 744.743 576.637C744.743 576.108 744.661 575.584 744.503 575.096C744.345 574.608 744.114 574.165 743.822 573.792C743.531 573.42 743.185 573.126 742.804 572.927C742.424 572.727 742.017 572.627 741.606 572.632H741.633ZM1192.65 572.632C1192.04 572.632 1191.43 572.867 1190.92 573.307C1190.41 573.747 1190.01 574.373 1189.78 575.104C1189.54 575.836 1189.48 576.641 1189.6 577.418C1189.72 578.195 1190.02 578.909 1190.45 579.469C1190.89 580.029 1191.44 580.41 1192.04 580.565C1192.65 580.719 1193.27 580.64 1193.84 580.337C1194.41 580.034 1194.89 579.52 1195.24 578.862C1195.58 578.203 1195.76 577.429 1195.76 576.637C1195.76 576.108 1195.68 575.584 1195.52 575.096C1195.36 574.608 1195.13 574.165 1194.84 573.792C1194.55 573.42 1194.2 573.126 1193.82 572.927C1193.44 572.727 1193.03 572.627 1192.62 572.632H1192.65ZM257.13 573.057C256.034 573.25 255.016 573.9 254.233 574.908C253.451 575.916 252.946 577.227 252.797 578.639C252.315 581.829 253.457 583.3 256.415 583.3C259.373 583.3 260.68 581.528 260.68 577.718C260.75 577.082 260.703 576.433 260.544 575.825C260.385 575.216 260.118 574.663 259.764 574.211C259.41 573.758 258.979 573.418 258.505 573.218C258.031 573.018 257.527 572.963 257.034 573.057H257.13ZM1016.77 575.396C1014.85 575.396 1013.66 577.913 1013.66 582.059C1013.66 587.677 1014.64 588.722 1019.88 588.722C1024.01 588.722 1026.09 587.376 1026.09 584.718C1026.08 583.657 1025.75 582.641 1025.17 581.891C1024.59 581.141 1023.8 580.717 1022.98 580.713C1021.27 580.713 1019.88 579.525 1019.88 578.055C1019.88 576.584 1018.48 575.396 1016.77 575.396ZM1570.85 575.733C1570.49 575.676 1570.12 575.724 1569.77 575.873C1569.43 576.022 1569.11 576.268 1568.85 576.594C1568.58 576.919 1568.38 577.316 1568.25 577.756C1568.12 578.196 1568.07 578.667 1568.1 579.135C1568.1 581.616 1569.88 583.388 1572.43 583.388C1577.47 583.388 1576.71 577.098 1571.52 575.804C1571.28 575.779 1571.04 575.779 1570.81 575.804L1570.85 575.733ZM1559.99 575.893C1558.27 576.057 1556.56 576.365 1554.88 576.814C1550.57 577.842 1547.45 580.163 1547.45 582.308C1547.45 587.624 1561.69 587.269 1563.28 581.882C1564.63 577.293 1563.94 575.538 1559.99 575.804V575.893ZM1610.68 578.143C1599.96 578.143 1599.16 579.242 1599.16 582.963C1599.2 586.191 1599.62 589.394 1600.4 592.461C1601.09 594.783 1603.88 596.714 1606.6 596.714C1612.33 596.714 1613.3 592.337 1607.98 590.548C1605.99 589.874 1607.32 589.13 1610.95 588.97C1614.58 588.811 1618.22 590.105 1619.03 591.788C1619.84 593.471 1619.59 594.109 1618.26 593.046C1617.75 592.557 1617.12 592.335 1616.49 592.427C1615.87 592.52 1615.29 592.919 1614.89 593.542C1614.28 594.801 1620.06 595.97 1627.69 596.13C1635.33 596.289 1640.43 595.74 1639 594.96C1633.94 592.16 1636.54 588.722 1643.67 588.722C1649.34 588.722 1650.9 587.571 1650.9 583.725C1650.9 579.206 1648.67 578.799 1625.04 578.303C1618.92 578.179 1614.27 578.108 1610.69 578.143H1610.68ZM821.07 578.728C819.143 578.904 817.223 579.206 815.319 579.632C810.105 580.713 806.776 582.821 806.776 585.054C806.776 590.37 823.079 589.98 824.661 584.558C826.037 579.933 825.431 578.338 821.07 578.639V578.728ZM279.253 580.713C269.911 580.713 266.747 583.3 266.871 590.973C267.008 597.299 267.215 597.494 268.811 592.745C270.186 588.811 270.64 588.457 270.75 591.575C270.861 594.694 273.02 595.935 277.794 596.165C284.123 596.466 284.756 595.793 284.907 588.581C285.058 581.368 284.481 580.713 279.253 580.713ZM326.029 583.3C324.144 583.619 322.727 585.072 322.727 586.72C322.727 588.368 320.168 591.522 317.031 593.117L311.349 596.041L317.031 595.704C320.168 595.527 322.727 594.517 322.727 593.365C322.727 592.213 324.584 591.292 326.854 591.292C329.124 591.292 330.981 589.52 330.981 587.287C330.981 585.054 329.152 583.3 326.854 583.3C326.575 583.273 326.294 583.273 326.015 583.3H326.029ZM1058.16 586.029C1057.54 586.025 1056.94 586.257 1056.42 586.695C1055.91 587.133 1055.51 587.757 1055.27 588.489C1055.04 589.22 1054.97 590.026 1055.09 590.804C1055.21 591.582 1055.5 592.297 1055.94 592.859C1056.37 593.421 1056.93 593.804 1057.53 593.96C1058.13 594.116 1058.76 594.038 1059.33 593.735C1059.9 593.433 1060.38 592.919 1060.73 592.26C1061.07 591.601 1061.25 590.827 1061.25 590.034C1061.25 588.976 1060.92 587.963 1060.34 587.213C1059.76 586.464 1058.98 586.038 1058.16 586.029ZM1038.11 586.454C1036.91 586.649 1036.43 587.712 1036.43 589.697C1036.43 592.072 1037.42 594.021 1038.62 594.021C1039.82 594.021 1040.27 592.532 1039.6 590.689C1038.92 588.846 1039.6 589.467 1040.97 592.036C1044.23 597.742 1048.8 598.132 1048.8 592.692C1048.8 590.494 1048.1 588.634 1047.25 588.616C1045.15 588.268 1043.07 587.711 1041.04 586.95C1040.1 586.531 1039.11 586.339 1038.11 586.383V586.454ZM1231.94 588.705C1231.51 588.75 1231.09 588.909 1230.7 589.171C1230.32 589.433 1229.98 589.793 1229.71 590.229C1229.43 590.665 1229.23 591.167 1229.12 591.707C1229 592.246 1228.97 592.81 1229.03 593.365C1229.15 596.608 1229.48 596.909 1230.26 594.358C1231.2 591.292 1231.64 591.292 1233.17 594.358C1234.69 597.423 1235.01 597.016 1235.04 593.365C1235.08 592.792 1235.03 592.215 1234.89 591.666C1234.76 591.118 1234.54 590.609 1234.25 590.169C1233.97 589.73 1233.61 589.368 1233.22 589.104C1232.82 588.84 1232.39 588.681 1231.94 588.634V588.705ZM1002.42 591.345C1001.6 591.351 1000.8 591.593 1000.06 592.053C999.32 592.512 998.671 593.179 998.158 594.003C997.443 595.474 998.778 596.679 1001.13 596.679C1003.48 596.679 1005.39 595.474 1005.39 594.003C1005.39 592.532 1004.06 591.345 1002.42 591.345ZM1555.71 591.345C1553.44 591.345 1551.59 592.55 1551.59 594.003C1551.59 595.456 1553.44 596.679 1555.71 596.679C1557.98 596.679 1559.84 595.474 1559.84 594.003C1559.84 592.532 1558 591.345 1555.71 591.345ZM1578.48 591.345C1576.2 591.345 1574.36 592.284 1574.36 593.418C1574.36 594.552 1576.21 595.509 1578.48 595.509C1580.75 595.509 1582.61 594.57 1582.61 593.418C1582.61 592.266 1580.73 591.345 1578.48 591.345ZM300.55 592.267C299.074 592.254 297.622 592.743 296.34 593.684C293.396 595.881 294.565 596.449 301.967 596.342C310.565 596.218 310.826 596.041 305.654 593.596C304.032 592.737 302.302 592.268 300.55 592.213V592.267ZM1270.02 594.34C1269.25 594.307 1268.48 594.476 1267.75 594.836C1266.1 595.687 1266.57 596.289 1268.98 596.431C1271.17 596.537 1272.39 595.899 1271.73 595.013C1271.25 594.512 1270.64 594.254 1270.02 594.287V594.34Z" fill="black"/>
<path d="M103.114 645.545H123.284L163.625 713.443H165.33L205.67 645.545H225.841L173.284 731.057V791H155.67V731.057L103.114 645.545ZM275.237 793.273C265.389 793.273 256.748 790.929 249.314 786.241C241.928 781.554 236.151 774.996 231.984 766.568C227.865 758.14 225.805 748.292 225.805 737.023C225.805 725.659 227.865 715.74 231.984 707.264C236.151 698.789 241.928 692.207 249.314 687.52C256.748 682.832 265.389 680.489 275.237 680.489C285.086 680.489 293.703 682.832 301.089 687.52C308.523 692.207 314.3 698.789 318.419 707.264C322.586 715.74 324.669 725.659 324.669 737.023C324.669 748.292 322.586 758.14 318.419 766.568C314.3 774.996 308.523 781.554 301.089 786.241C293.703 790.929 285.086 793.273 275.237 793.273ZM275.237 778.216C282.718 778.216 288.874 776.298 293.703 772.463C298.533 768.628 302.107 763.585 304.428 757.335C306.748 751.085 307.908 744.314 307.908 737.023C307.908 729.731 306.748 722.937 304.428 716.639C302.107 710.342 298.533 705.252 293.703 701.369C288.874 697.487 282.718 695.545 275.237 695.545C267.756 695.545 261.601 697.487 256.771 701.369C251.942 705.252 248.367 710.342 246.047 716.639C243.727 722.937 242.567 729.731 242.567 737.023C242.567 744.314 243.727 751.085 246.047 757.335C248.367 763.585 251.942 768.628 256.771 772.463C261.601 776.298 267.756 778.216 275.237 778.216ZM419.005 746.398V681.909H435.766V791H419.005V772.534H417.869C415.312 778.074 411.335 782.785 405.937 786.668C400.539 790.503 393.721 792.42 385.482 792.42C378.664 792.42 372.603 790.929 367.3 787.946C361.997 784.916 357.831 780.37 354.8 774.31C351.77 768.202 350.255 760.508 350.255 751.227V681.909H367.016V750.091C367.016 758.045 369.242 764.39 373.692 769.125C378.191 773.86 383.92 776.227 390.88 776.227C395.047 776.227 399.284 775.162 403.593 773.031C407.949 770.901 411.595 767.634 414.531 763.23C417.513 758.827 419.005 753.216 419.005 746.398ZM466.466 791V681.909H482.659V698.386H483.795C485.784 692.989 489.383 688.609 494.591 685.247C499.799 681.885 505.67 680.205 512.205 680.205C513.436 680.205 514.974 680.228 516.821 680.276C518.668 680.323 520.064 680.394 521.011 680.489V697.534C520.443 697.392 519.141 697.179 517.105 696.895C515.116 696.563 513.009 696.398 510.784 696.398C505.481 696.398 500.746 697.51 496.58 699.736C492.46 701.914 489.193 704.944 486.778 708.827C484.411 712.662 483.227 717.042 483.227 721.966V791H466.466ZM716.448 691H698.835C697.793 685.934 695.97 681.483 693.366 677.648C690.809 673.812 687.684 670.593 683.991 667.989C680.345 665.337 676.297 663.348 671.846 662.023C667.395 660.697 662.755 660.034 657.925 660.034C649.119 660.034 641.14 662.259 633.991 666.71C626.888 671.161 621.23 677.719 617.016 686.384C612.85 695.048 610.766 705.678 610.766 718.273C610.766 730.867 612.85 741.497 617.016 750.162C621.23 758.827 626.888 765.384 633.991 769.835C641.14 774.286 649.119 776.511 657.925 776.511C662.755 776.511 667.395 775.848 671.846 774.523C676.297 773.197 680.345 771.232 683.991 768.628C687.684 765.976 690.809 762.733 693.366 758.898C695.97 755.015 697.793 750.564 698.835 745.545H716.448C715.122 752.979 712.708 759.632 709.204 765.503C705.7 771.374 701.344 776.369 696.136 780.489C690.927 784.561 685.08 787.662 678.593 789.793C672.154 791.923 665.264 792.989 657.925 792.989C645.52 792.989 634.488 789.958 624.829 783.898C615.17 777.837 607.57 769.22 602.031 758.045C596.491 746.871 593.721 733.614 593.721 718.273C593.721 702.932 596.491 689.674 602.031 678.5C607.57 667.326 615.17 658.708 624.829 652.648C634.488 646.587 645.52 643.557 657.925 643.557C665.264 643.557 672.154 644.622 678.593 646.753C685.08 648.884 690.927 652.009 696.136 656.128C701.344 660.2 705.7 665.171 709.204 671.043C712.708 676.866 715.122 683.519 716.448 691ZM742.638 791V681.909H759.399V791H742.638ZM751.161 663.727C747.893 663.727 745.076 662.615 742.709 660.389C740.389 658.164 739.229 655.489 739.229 652.364C739.229 649.239 740.389 646.563 742.709 644.338C745.076 642.113 747.893 641 751.161 641C754.428 641 757.221 642.113 759.541 644.338C761.909 646.563 763.092 649.239 763.092 652.364C763.092 655.489 761.909 658.164 759.541 660.389C757.221 662.615 754.428 663.727 751.161 663.727ZM837.542 681.909V696.114H781.008V681.909H837.542ZM797.485 655.773H814.246V759.75C814.246 764.485 814.933 768.036 816.306 770.403C817.727 772.723 819.526 774.286 821.704 775.091C823.929 775.848 826.273 776.227 828.735 776.227C830.582 776.227 832.097 776.133 833.281 775.943C834.464 775.706 835.411 775.517 836.121 775.375L839.531 790.432C838.394 790.858 836.808 791.284 834.772 791.71C832.736 792.184 830.156 792.42 827.031 792.42C822.296 792.42 817.656 791.402 813.11 789.366C808.612 787.33 804.871 784.229 801.888 780.062C798.953 775.896 797.485 770.64 797.485 764.295V655.773ZM873.55 831.909C870.71 831.909 868.176 831.672 865.951 831.199C863.726 830.773 862.187 830.347 861.335 829.92L865.596 815.148C869.668 816.189 873.266 816.568 876.391 816.284C879.516 816 882.286 814.603 884.701 812.094C887.163 809.632 889.412 805.631 891.448 800.091L894.573 791.568L854.232 681.909H872.414L902.528 768.841H903.664L933.778 681.909H951.96L905.653 806.909C903.569 812.544 900.989 817.207 897.911 820.901C894.834 824.641 891.259 827.411 887.187 829.21C883.162 831.009 878.617 831.909 873.55 831.909ZM1032.61 791V645.545H1120.39V661.17H1050.22V710.318H1115.84V725.943H1050.22V775.375H1121.53V791H1032.61ZM1239.07 681.909L1198.73 791H1181.68L1141.34 681.909H1159.52L1189.64 768.841H1190.77L1220.89 681.909H1239.07ZM1303.02 793.273C1292.51 793.273 1283.45 790.953 1275.82 786.312C1268.25 781.625 1262.4 775.091 1258.28 766.71C1254.21 758.282 1252.17 748.481 1252.17 737.307C1252.17 726.133 1254.21 716.284 1258.28 707.761C1262.4 699.191 1268.13 692.515 1275.47 687.733C1282.85 682.903 1291.47 680.489 1301.32 680.489C1307 680.489 1312.61 681.436 1318.15 683.33C1323.69 685.223 1328.74 688.301 1333.28 692.562C1337.83 696.777 1341.45 702.364 1344.15 709.324C1346.85 716.284 1348.2 724.854 1348.2 735.034V742.136H1264.1V727.648H1331.15C1331.15 721.492 1329.92 716 1327.46 711.17C1325.04 706.341 1321.59 702.529 1317.09 699.736C1312.64 696.942 1307.38 695.545 1301.32 695.545C1294.64 695.545 1288.87 697.203 1283.99 700.517C1279.16 703.784 1275.44 708.045 1272.84 713.301C1270.24 718.557 1268.93 724.191 1268.93 730.205V739.864C1268.93 748.102 1270.35 755.086 1273.2 760.815C1276.08 766.497 1280.08 770.83 1285.2 773.812C1290.31 776.748 1296.25 778.216 1303.02 778.216C1307.43 778.216 1311.41 777.6 1314.96 776.369C1318.56 775.091 1321.66 773.197 1324.26 770.688C1326.86 768.131 1328.88 764.958 1330.3 761.17L1346.49 765.716C1344.79 771.208 1341.92 776.038 1337.9 780.205C1333.87 784.324 1328.9 787.544 1322.98 789.864C1317.06 792.136 1310.41 793.273 1303.02 793.273ZM1390.45 725.375V791H1373.69V681.909H1389.89V698.955H1391.31C1393.86 693.415 1397.75 688.964 1402.95 685.602C1408.16 682.193 1414.89 680.489 1423.12 680.489C1430.51 680.489 1436.97 682.004 1442.51 685.034C1448.05 688.017 1452.36 692.562 1455.44 698.67C1458.52 704.731 1460.06 712.402 1460.06 721.682V791H1443.29V722.818C1443.29 714.248 1441.07 707.572 1436.62 702.79C1432.17 697.96 1426.06 695.545 1418.29 695.545C1412.94 695.545 1408.16 696.705 1403.95 699.026C1399.78 701.346 1396.49 704.731 1394.08 709.182C1391.66 713.633 1390.45 719.03 1390.45 725.375ZM1538.13 681.909V696.114H1481.59V681.909H1538.13ZM1498.07 655.773H1514.83V759.75C1514.83 764.485 1515.52 768.036 1516.89 770.403C1518.31 772.723 1520.11 774.286 1522.29 775.091C1524.52 775.848 1526.86 776.227 1529.32 776.227C1531.17 776.227 1532.68 776.133 1533.87 775.943C1535.05 775.706 1536 775.517 1536.71 775.375L1540.12 790.432C1538.98 790.858 1537.39 791.284 1535.36 791.71C1533.32 792.184 1530.74 792.42 1527.62 792.42C1522.88 792.42 1518.24 791.402 1513.7 789.366C1509.2 787.33 1505.46 784.229 1502.47 780.062C1499.54 775.896 1498.07 770.64 1498.07 764.295V655.773ZM1638.66 706.341L1623.6 710.602C1622.66 708.093 1621.26 705.654 1619.41 703.287C1617.61 700.872 1615.15 698.884 1612.03 697.321C1608.9 695.759 1604.9 694.977 1600.02 694.977C1593.35 694.977 1587.78 696.516 1583.33 699.594C1578.93 702.624 1576.73 706.483 1576.73 711.17C1576.73 715.337 1578.24 718.628 1581.27 721.043C1584.3 723.457 1589.04 725.47 1595.48 727.08L1611.67 731.057C1621.43 733.424 1628.69 737.046 1633.48 741.923C1638.26 746.753 1640.65 752.979 1640.65 760.602C1640.65 766.852 1638.85 772.439 1635.25 777.364C1631.7 782.288 1626.73 786.17 1620.34 789.011C1613.94 791.852 1606.51 793.273 1598.04 793.273C1586.91 793.273 1577.7 790.858 1570.41 786.028C1563.12 781.199 1558.5 774.144 1556.56 764.864L1572.47 760.886C1573.98 766.758 1576.85 771.161 1581.06 774.097C1585.32 777.032 1590.89 778.5 1597.75 778.5C1605.56 778.5 1611.77 776.843 1616.36 773.528C1621 770.167 1623.32 766.142 1623.32 761.455C1623.32 757.667 1621.99 754.494 1619.34 751.938C1616.69 749.333 1612.62 747.392 1607.13 746.114L1588.94 741.852C1578.95 739.485 1571.62 735.815 1566.93 730.844C1562.29 725.825 1559.97 719.551 1559.97 712.023C1559.97 705.867 1561.7 700.422 1565.15 695.688C1568.66 690.953 1573.41 687.236 1579.43 684.537C1585.49 681.838 1592.35 680.489 1600.02 680.489C1610.82 680.489 1619.29 682.856 1625.45 687.591C1631.65 692.326 1636.06 698.576 1638.66 706.341Z" fill="#0B0A0A"/>
</svg>
